<svg xmlns="http://www.w3.org/2000/svg" width="438.025" height="235.176" viewBox="0 0 438.025 235.176">
  <g id="Group_17829" data-name="Group 17829" transform="translate(-113 -171)">
    <g id="Group_17421" data-name="Group 17421" transform="translate(-333.5 3)">
      <text id="Avancement_de_l_AD" data-name="Avancement de l’AD" transform="translate(530 185)" fill="#dc6206" font-size="18" font-family="Roboto-Regular, Roboto" letter-spacing="-0.005em"><tspan x="-78.609" y="0">Avancement de l’AD</tspan></text>
      <path id="Path_45340" data-name="Path 45340" d="M10740.428,3342.1H10581v-.2h159.428Z" transform="translate(-10134.5 -3148)" fill="#707070"/>
    </g>
    <g id="Group_17625" data-name="Group 17625" transform="translate(-12.498 -66.162)">
      <g id="Group_17623" data-name="Group 17623" transform="translate(237.497 292.162)">
        <g id="Group_17620" data-name="Group 17620">
          <path id="Path_45385" data-name="Path 45385" d="M2597.843,1036.74a163.013,163.013,0,0,0-304.205,81.518h58.129a104.884,104.884,0,0,1,209.768,0h58.128A162.255,162.255,0,0,0,2597.843,1036.74Z" transform="translate(-2293.638 -955.245)" fill="#fff"/>
          <g id="Group_17619" data-name="Group 17619" transform="translate(0)">
            <path id="Path_45386" data-name="Path 45386" d="M2679.645,1027.436l29.082-50.371a162.258,162.258,0,0,0-81.518-21.82v58.129A104.364,104.364,0,0,1,2679.645,1027.436Z" transform="translate(-2464.196 -955.245)" fill="#fed137"/>
            <path id="Path_45387" data-name="Path 45387" d="M2427.044,1050.266l-29.082-50.371a163.8,163.8,0,0,0-59.675,59.675l50.371,29.082A105.353,105.353,0,0,1,2427.044,1050.266Z" transform="translate(-2316.468 -978.075)" fill="#4aa763"/>
            <path id="Path_45388" data-name="Path 45388" d="M2541.918,1013.374V955.245a162.256,162.256,0,0,0-81.518,21.82l29.082,50.371A104.366,104.366,0,0,1,2541.918,1013.374Z" transform="translate(-2378.905 -955.245)" fill="#fed137"/>
            <path id="Path_45389" data-name="Path 45389" d="M2772.892,1088.652l50.371-29.082a163.8,163.8,0,0,0-59.675-59.675l-29.082,50.371A105.348,105.348,0,0,1,2772.892,1088.652Z" transform="translate(-2519.058 -978.075)" fill="#d00000"/>
            <path id="Path_45390" data-name="Path 45390" d="M2827.117,1203.525h58.129a162.259,162.259,0,0,0-21.82-81.518l-50.372,29.082A104.364,104.364,0,0,1,2827.117,1203.525Z" transform="translate(-2559.221 -1040.512)" fill="#d00000"/>
            <path id="Path_45391" data-name="Path 45391" d="M2351.766,1203.525a104.362,104.362,0,0,1,14.063-52.436l-50.371-29.082a162.257,162.257,0,0,0-21.82,81.518h58.129Z" transform="translate(-2293.638 -1040.512)" fill="#4aa763"/>
          </g>
        </g>
        <path id="Path_45392" data-name="Path 45392" d="M2606.056,1108.285a117.31,117.31,0,0,0-218.9,58.227h12.424a104.885,104.885,0,0,1,209.769,0h12.424A116.723,116.723,0,0,0,2606.056,1108.285Z" transform="translate(-2341.457 -1003.5)" fill="#919191" style="mix-blend-mode: color-burn;isolation: isolate"/>
        <g id="Group_17622" data-name="Group 17622" transform="translate(157.235 35.357)">
          <path id="Path_45393" data-name="Path 45393" d="M2609.141,1113.7l12.188,3.266,17.415-89.371Z" transform="translate(-2601.482 -1027.595)" fill="#303030"/>
          <g id="Group_17621" data-name="Group 17621" transform="translate(0 74.135)">
            <ellipse id="Ellipse_1536" data-name="Ellipse 1536" cx="13.737" cy="13.737" rx="13.737" ry="13.737" fill="#303030"/>
            <ellipse id="Ellipse_1537" data-name="Ellipse 1537" cx="9.762" cy="9.762" rx="9.762" ry="9.762" transform="translate(3.975 3.975)" fill="#fff"/>
            <ellipse id="Ellipse_1538" data-name="Ellipse 1538" cx="6.85" cy="6.85" rx="6.85" ry="6.85" transform="translate(6.887 6.887)" fill="#303030"/>
          </g>
        </g>
        <path id="Path_45394" data-name="Path 45394" d="M2315.458,1043.279a163.034,163.034,0,0,1,282.385,0,162.114,162.114,0,0,1,21.678,74.979h.142a163.013,163.013,0,1,0-326.025,0h.143A162.113,162.113,0,0,1,2315.458,1043.279Z" transform="translate(-2293.638 -955.245)" fill="#fff" style="mix-blend-mode: soft-light;isolation: isolate"/>
      </g>
      <g id="Group_17624" data-name="Group 17624" transform="translate(319.266 444.898)">
        <text id="_64_" data-name="64 %" transform="translate(82.286 16)" font-size="16" font-family="NunitoSans-SemiBold, Nunito Sans" font-weight="600" letter-spacing="-0.005em"><tspan x="-19.08" y="0">64 %</tspan></text>
        <path id="Path_45340-2" data-name="Path 45340" d="M10742.434,3342.1H10581v-.2h161.434Z" transform="translate(-10581 -3314.66)" fill="#707070"/>
      </g>
    </g>
  </g>
</svg>
