<svg xmlns="http://www.w3.org/2000/svg" width="539.077" height="270.553" viewBox="0 0 539.077 270.553">
  <g id="Group_17873" data-name="Group 17873" transform="translate(-700.923 -480)">
    <g id="Group_17781" data-name="Group 17781" transform="translate(281.923 312)">
      <text id="Répartition_des_visites_nb_1_274_visites_" data-name="Répartition des visites ( nb )
1 274 visites  " transform="translate(530 185)" fill="#151d21" font-size="18" font-family="Roboto-Regular, Roboto" letter-spacing="-0.005em"><tspan x="-110.123" y="0">Répartition des visites ( nb )</tspan><tspan font-size="16"><tspan x="-48.19" y="30" xml:space="preserve">1 274 visites  </tspan></tspan></text>
      <path id="Path_45340" data-name="Path 45340" d="M10740.428,3342.1H10581v-.2h159.428Z" transform="translate(-10134.5 -3148)" fill="#707070"/>
    </g>
    <g id="Group_17786" data-name="Group 17786" transform="translate(602.846 261.174)">
      <g id="Group_17549" data-name="Group 17549" transform="translate(249.155 284.856)">
        <g id="Component_8_1" data-name="Component 8 – 1" transform="translate(50.631 0)">
          <path id="Path_45328" data-name="Path 45328" d="M3196.9,1053.023v102.258c0,.007,0,.014,0,.022a.29.29,0,0,1,0,.033c0,.015-.006.029-.007.043,0,.037-.011.074-.02.111s-.005.055-.012.081l0,.011c-.006.021-.018.041-.026.063s0,.028-.009.042-.024.036-.033.056-.023.06-.039.088l-.01.015h0l-52.54,87.721a102.269,102.269,0,1,0,52.7-190.543Z" transform="translate(-3144.2 -1053.023)" fill="#a61f7d"/>
        </g>
        <g id="Component_11_1" data-name="Component 11 – 1" transform="translate(0 90.635)">
          <path id="Path_45327" data-name="Path 45327" d="M2886.013,1526.833a101.513,101.513,0,0,0,48.8,87.185l51.705-86.327-99.847-12.48A103.807,103.807,0,0,0,2886.013,1526.833Z" transform="translate(-2886.013 -1515.21)" fill="#ac0000"/>
        </g>
        <g id="Component_9_1" data-name="Component 9 – 1" transform="translate(21.73 0)">
          <path id="Path_45330" data-name="Path 45330" d="M3076.288,1153.116V1053.023a101.557,101.557,0,0,0-79.465,39.237l27.276,20.888Z" transform="translate(-2996.824 -1053.023)" fill="#dedede"/>
        </g>
        <g id="Component_10_1" data-name="Component 10 – 1" transform="translate(0.92 40.935)">
          <path id="Path_45329" data-name="Path 45329" d="M2890.7,1309.343l75.359,9.419,22.2,2.776-63.788-48.85-14.265-10.924A101.976,101.976,0,0,0,2890.7,1309.343Z" transform="translate(-2890.7 -1261.764)" fill="#d00000"/>
        </g>
      </g>
      <path id="Path_45375" data-name="Path 45375" d="M6813.74-2142.816l1.674-103.447s52.159.26,81.155,43.546" transform="translate(-6462.698 2530.089)" fill="#888"/>
      <path id="Path_45375_-_Outline" data-name="Path 45375 - Outline" d="M6814.24-2142.808l-1-.016,1.683-103.941.494,0a77.722,77.722,0,0,1,8.666.721,118.243,118.243,0,0,1,21.192,4.844,106.055,106.055,0,0,1,26.664,13,93.08,93.08,0,0,1,25.047,25.2l-.831.557a92.075,92.075,0,0,0-24.779-24.93,105.051,105.051,0,0,0-26.412-12.878,117.2,117.2,0,0,0-21.01-4.8c-4.074-.534-6.947-.668-8.046-.7Z" transform="translate(-6462.698 2530.089)" fill="#fff"/>
      <path id="Path_45376" data-name="Path 45376" d="M6813.9-2136.838l-1.169-1.623,83.325-60.048,1.169,1.623Z" transform="translate(-6462.27 2524.922)" fill="#fff"/>
      <path id="Path_45377" data-name="Path 45377" d="M.292,60.454l-.585-.811L83.033-.406l.585.811Z" transform="matrix(0.995, 0.105, -0.105, 0.995, 357.319, 327.42)" fill="#fff"/>
      <path id="Path_45378" data-name="Path 45378" d="M6821.1-2142.289l76.684-54.391,4.979,7.751Z" transform="translate(-6463.227 2524.797)" fill="#cd77e2"/>
      <path id="Path_45378_-_Outline" data-name="Path 45378 - Outline" d="M6821.351-2141.854l-.537-.842,77.111-54.694.283.44,5.264,8.194-.458.261Zm76.3-54.115-67.942,48.19,72.354-41.323Z" transform="translate(-6463.227 2524.797)" fill="#cd77e2"/>
    </g>
    <g id="Group_17787" data-name="Group 17787" transform="translate(534 206)">
      <rect id="Rectangle_149501" data-name="Rectangle 149501" width="11" height="11" transform="translate(524 492)" fill="#a61f7d"/>
      <rect id="Rectangle_149502" data-name="Rectangle 149502" width="11" height="11" transform="translate(524 510)" fill="#ac0000"/>
      <path id="Path_45368" data-name="Path 45368" d="M0,0H11V11H0Z" transform="translate(524 527)" fill="#888"/>
      <rect id="Rectangle_149504" data-name="Rectangle 149504" width="11" height="11" transform="translate(610 491)" fill="#cd77e2"/>
      <text id="P2CD_END" data-name="P2CD + END" transform="translate(573 501)" fill="rgba(0,0,0,0.85)" font-size="10" font-family="NunitoSans-Regular, Nunito Sans" letter-spacing="-0.005em"><tspan x="-28.96" y="0">P2CD + END</tspan></text>
      <text id="C_P2CD_END" data-name="C P2CD + END" transform="translate(663 500)" fill="rgba(0,0,0,0.85)" font-size="10" font-family="NunitoSans-Regular, Nunito Sans" letter-spacing="-0.005em"><tspan x="-33.585" y="0">C P2CD + END</tspan></text>
      <text id="Enduit_H_PI" data-name="Enduit H PI" transform="translate(569 519)" fill="rgba(0,0,0,0.85)" font-size="10" font-family="NunitoSans-Regular, Nunito Sans" letter-spacing="-0.005em"><tspan x="-24.95" y="0">Enduit H PI</tspan></text>
      <text id="Pur_Pros." data-name="Pur Pros." transform="translate(564 537)" fill="rgba(0,0,0,0.85)" font-size="10" font-family="NunitoSans-Regular, Nunito Sans" letter-spacing="-0.005em"><tspan x="-20.04" y="0">Pur Pros.</tspan></text>
      <rect id="Rectangle_149575" data-name="Rectangle 149575" width="11" height="11" transform="translate(610 508)" fill="#d00000"/>
      <path id="Path_45374" data-name="Path 45374" d="M0,0H11V11H0Z" transform="translate(610 525)" fill="#dedede"/>
      <text id="C_Enduit_H_P2CD" data-name="C Enduit H P2CD" transform="translate(667 518)" fill="rgba(0,0,0,0.85)" font-size="10" font-family="NunitoSans-Regular, Nunito Sans" letter-spacing="-0.005em"><tspan x="-38.325" y="0">C Enduit H P2CD</tspan></text>
      <text id="C_pur_Pros." data-name="C pur Pros." transform="translate(653 536)" fill="rgba(0,0,0,0.85)" font-size="10" font-family="NunitoSans-Regular, Nunito Sans" letter-spacing="-0.005em"><tspan x="-24.38" y="0">C pur Pros.</tspan></text>
    </g>
  </g>
</svg>
