<svg xmlns="http://www.w3.org/2000/svg" xmlns:xlink="http://www.w3.org/1999/xlink" width="512.187" height="565" viewBox="0 0 512.187 565">
  <defs>
    <filter id="Rectangle_149509" x="138.604" y="439.5" width="364.11" height="23.191" filterUnits="userSpaceOnUse">
      <feOffset dy="1" input="SourceAlpha"/>
      <feGaussianBlur stdDeviation="0.5" result="blur"/>
      <feFlood flood-opacity="0.302"/>
      <feComposite operator="in" in2="blur"/>
      <feComposite in="SourceGraphic"/>
    </filter>
    <filter id="Rectangle_149509-2" x="138.604" y="475.5" width="364.11" height="23.191" filterUnits="userSpaceOnUse">
      <feOffset dy="1" input="SourceAlpha"/>
      <feGaussianBlur stdDeviation="0.5" result="blur-2"/>
      <feFlood flood-opacity="0.302"/>
      <feComposite operator="in" in2="blur-2"/>
      <feComposite in="SourceGraphic"/>
    </filter>
    <filter id="Rectangle_149509-3" x="139.632" y="511.5" width="364.11" height="23.191" filterUnits="userSpaceOnUse">
      <feOffset dy="1" input="SourceAlpha"/>
      <feGaussianBlur stdDeviation="0.5" result="blur-3"/>
      <feFlood flood-opacity="0.302"/>
      <feComposite operator="in" in2="blur-3"/>
      <feComposite in="SourceGraphic"/>
    </filter>
    <filter id="Rectangle_149509-4" x="138.132" y="79.5" width="364.11" height="23.191" filterUnits="userSpaceOnUse">
      <feOffset dy="1" input="SourceAlpha"/>
      <feGaussianBlur stdDeviation="0.5" result="blur-4"/>
      <feFlood flood-opacity="0.302"/>
      <feComposite operator="in" in2="blur-4"/>
      <feComposite in="SourceGraphic"/>
    </filter>
    <filter id="Rectangle_149509-5" x="138.132" y="115.5" width="364.11" height="23.191" filterUnits="userSpaceOnUse">
      <feOffset dy="1" input="SourceAlpha"/>
      <feGaussianBlur stdDeviation="0.5" result="blur-5"/>
      <feFlood flood-opacity="0.302"/>
      <feComposite operator="in" in2="blur-5"/>
      <feComposite in="SourceGraphic"/>
    </filter>
    <filter id="Rectangle_149509-6" x="138.076" y="151.5" width="364.11" height="23.191" filterUnits="userSpaceOnUse">
      <feOffset dy="1" input="SourceAlpha"/>
      <feGaussianBlur stdDeviation="0.5" result="blur-6"/>
      <feFlood flood-opacity="0.302"/>
      <feComposite operator="in" in2="blur-6"/>
      <feComposite in="SourceGraphic"/>
    </filter>
    <filter id="Rectangle_149509-7" x="138.076" y="187.5" width="364.11" height="23.191" filterUnits="userSpaceOnUse">
      <feOffset dy="1" input="SourceAlpha"/>
      <feGaussianBlur stdDeviation="0.5" result="blur-7"/>
      <feFlood flood-opacity="0.302"/>
      <feComposite operator="in" in2="blur-7"/>
      <feComposite in="SourceGraphic"/>
    </filter>
    <filter id="Rectangle_149509-8" x="138.076" y="259.5" width="364.11" height="23.191" filterUnits="userSpaceOnUse">
      <feOffset dy="1" input="SourceAlpha"/>
      <feGaussianBlur stdDeviation="0.5" result="blur-8"/>
      <feFlood flood-opacity="0.302"/>
      <feComposite operator="in" in2="blur-8"/>
      <feComposite in="SourceGraphic"/>
    </filter>
    <filter id="Rectangle_149509-9" x="138.021" y="295.5" width="364.11" height="23.191" filterUnits="userSpaceOnUse">
      <feOffset dy="1" input="SourceAlpha"/>
      <feGaussianBlur stdDeviation="0.5" result="blur-9"/>
      <feFlood flood-opacity="0.302"/>
      <feComposite operator="in" in2="blur-9"/>
      <feComposite in="SourceGraphic"/>
    </filter>
    <filter id="Rectangle_149509-10" x="138.659" y="367.5" width="364.11" height="23.191" filterUnits="userSpaceOnUse">
      <feOffset dy="1" input="SourceAlpha"/>
      <feGaussianBlur stdDeviation="0.5" result="blur-10"/>
      <feFlood flood-opacity="0.302"/>
      <feComposite operator="in" in2="blur-10"/>
      <feComposite in="SourceGraphic"/>
    </filter>
    <filter id="Rectangle_149509-11" x="138.659" y="403.5" width="364.11" height="23.191" filterUnits="userSpaceOnUse">
      <feOffset dy="1" input="SourceAlpha"/>
      <feGaussianBlur stdDeviation="0.5" result="blur-11"/>
      <feFlood flood-opacity="0.302"/>
      <feComposite operator="in" in2="blur-11"/>
      <feComposite in="SourceGraphic"/>
    </filter>
    <filter id="Rectangle_149509-12" x="138.076" y="223.5" width="364.11" height="23.191" filterUnits="userSpaceOnUse">
      <feOffset dy="1" input="SourceAlpha"/>
      <feGaussianBlur stdDeviation="0.5" result="blur-12"/>
      <feFlood flood-opacity="0.302"/>
      <feComposite operator="in" in2="blur-12"/>
      <feComposite in="SourceGraphic"/>
    </filter>
    <filter id="Rectangle_149509-13" x="138.021" y="331.5" width="364.11" height="23.191" filterUnits="userSpaceOnUse">
      <feOffset dy="1" input="SourceAlpha"/>
      <feGaussianBlur stdDeviation="0.5" result="blur-13"/>
      <feFlood flood-opacity="0.302"/>
      <feComposite operator="in" in2="blur-13"/>
      <feComposite in="SourceGraphic"/>
    </filter>
    <filter id="Rectangle_149744" x="7.187" y="26" width="160" height="145" filterUnits="userSpaceOnUse">
      <feOffset dy="3" input="SourceAlpha"/>
      <feGaussianBlur stdDeviation="3" result="blur-14"/>
      <feFlood flood-opacity="0.161"/>
      <feComposite operator="in" in2="blur-14"/>
      <feComposite in="SourceGraphic"/>
    </filter>
  </defs>
  <g id="Group_17869" data-name="Group 17869" transform="translate(-698.813 -172)">
    <g id="Group_17802" data-name="Group 17802" transform="translate(0 21)">
      <text id="DMBP" transform="translate(749 606)" fill="#151d21" font-size="16" font-family="Roboto-Regular, Roboto" opacity="0.849"><tspan x="0" y="0">DMBP</tspan></text>
      <text id="Group.Rég." transform="translate(732 642)" fill="#151d21" font-size="16" font-family="Roboto-Regular, Roboto" opacity="0.849"><tspan x="0" y="0">Group.Rég.</tspan></text>
      <text id="Nég_ancien_PdV" data-name="Nég ancien PdV" transform="translate(715 682)" fill="#151d21" font-size="16" font-family="Roboto-Regular, Roboto" opacity="0.849"><tspan x="0" y="0">Nég ancien PdV</tspan></text>
      <text id="_0" data-name="0" transform="translate(834 712)" fill="#151d21" font-size="16" font-family="Roboto-Regular, Roboto" opacity="0.849"><tspan x="0" y="0">0</tspan></text>
      <text id="_400" data-name="400" transform="translate(916 712)" fill="#151d21" font-size="16" font-family="Roboto-Regular, Roboto" opacity="0.849"><tspan x="0" y="0">400</tspan></text>
      <text id="_800" data-name="800" transform="translate(1007 712)" fill="#151d21" font-size="16" font-family="Roboto-Regular, Roboto" opacity="0.849"><tspan x="0" y="0">800</tspan></text>
      <text id="_1_200" data-name="1 200" transform="translate(1090 712)" fill="#151d21" font-size="16" font-family="Roboto-Regular, Roboto" opacity="0.849"><tspan x="0" y="0">1 200</tspan></text>
      <text id="_1_600" data-name="1 600" transform="translate(1171 712)" fill="#151d21" font-size="16" font-family="Roboto-Regular, Roboto" opacity="0.849"><tspan x="0" y="0">1 600</tspan></text>
      <g id="Group_17475" data-name="Group 17475" transform="translate(13.472 225.208)">
        <g transform="matrix(1, 0, 0, 1, 685.34, -74.21)" filter="url(#Rectangle_149509)">
          <rect id="Rectangle_149509-14" data-name="Rectangle 149509" width="361.11" height="20.191" transform="translate(140.1 440)" fill="#fff"/>
        </g>
        <rect id="Rectangle_149512" data-name="Rectangle 149512" width="93.721" height="20.191" transform="translate(889.752 365.792)" fill="#0056a6"/>
        <rect id="Rectangle_149511" data-name="Rectangle 149511" width="10.659" height="20.191" transform="translate(982.091 365.792)" fill="#009fe4"/>
        <rect id="Rectangle_149510" data-name="Rectangle 149510" width="3.838" height="20.191" transform="translate(992.749 365.792)" fill="#888"/>
        <rect id="Rectangle_149513" data-name="Rectangle 149513" width="135.721" height="20.191" transform="translate(825.445 365.792)" fill="#b3007e"/>
      </g>
      <g id="Group_17476" data-name="Group 17476" transform="translate(13.472 261.208)">
        <g transform="matrix(1, 0, 0, 1, 685.34, -110.21)" filter="url(#Rectangle_149509-2)">
          <rect id="Rectangle_149509-15" data-name="Rectangle 149509" width="361.11" height="20.191" transform="translate(140.1 476)" fill="#fff"/>
        </g>
        <rect id="Rectangle_149513-2" data-name="Rectangle 149513" width="64.721" height="20.191" transform="translate(825.445 365.792)" fill="#b3007e"/>
        <rect id="Rectangle_149512-2" data-name="Rectangle 149512" width="5.721" height="20.191" transform="translate(889.752 365.792)" fill="#0056a6"/>
        <rect id="Rectangle_149511-2" data-name="Rectangle 149511" width="4.659" height="20.191" transform="translate(895.473 365.792)" fill="#009fe4"/>
      </g>
      <g id="Group_17477" data-name="Group 17477" transform="translate(14.5 297.208)">
        <g transform="matrix(1, 0, 0, 1, 684.31, -146.21)" filter="url(#Rectangle_149509-3)">
          <rect id="Rectangle_149509-16" data-name="Rectangle 149509" width="361.11" height="20.191" transform="translate(141.13 512)" fill="#fff"/>
        </g>
        <rect id="Rectangle_149513-3" data-name="Rectangle 149513" width="77.721" height="20.191" transform="translate(825.445 365.792)" fill="#b3007e"/>
      </g>
      <text id="Point_P" data-name="Point P" transform="translate(746 246)" fill="#151d21" font-size="16" font-family="Roboto-Regular, Roboto" opacity="0.849"><tspan x="0" y="0">Point P</tspan></text>
      <text id="CMEM" transform="translate(748 280)" fill="#151d21" font-size="16" font-family="Roboto-Regular, Roboto" opacity="0.849"><tspan x="0" y="0">CMEM</tspan></text>
      <text id="Gédimat" transform="translate(742 316)" fill="#151d21" font-size="16" font-family="Roboto-Regular, Roboto" opacity="0.849"><tspan x="0" y="0">Gédimat</tspan></text>
      <text id="Autres" transform="translate(748 355)" fill="#151d21" font-size="16" font-family="Roboto-Regular, Roboto" opacity="0.849"><tspan x="0" y="0">Autres</tspan></text>
      <text id="SIG_France" data-name="SIG France" transform="translate(733 388)" fill="#151d21" font-size="16" font-family="Roboto-Regular, Roboto" opacity="0.849"><tspan x="0" y="0">SIG France</tspan></text>
      <text id="MCD" transform="translate(754 427)" fill="#151d21" font-size="16" font-family="Roboto-Regular, Roboto" opacity="0.849"><tspan x="0" y="0">MCD</tspan></text>
      <text id="SFIC" transform="translate(755 463)" fill="#151d21" font-size="16" font-family="Roboto-Regular, Roboto" opacity="0.849"><tspan x="0" y="0">SFIC</tspan></text>
      <text id="Nég_mts_cons" data-name="Nég mts cons" transform="translate(722 499)" fill="#151d21" font-size="16" font-family="Roboto-Regular, Roboto" opacity="0.849"><tspan x="0" y="0">Nég mts cons</tspan></text>
      <text id="Altéral" transform="translate(749 533)" fill="#151d21" font-size="16" font-family="Roboto-Regular, Roboto" opacity="0.849"><tspan x="0" y="0">Altéral</tspan></text>
      <text id="Bois_Mat" data-name="Bois &amp; Mat" transform="translate(733 570)" fill="#151d21" font-size="16" font-family="Roboto-Regular, Roboto" opacity="0.849"><tspan x="0" y="0">Bois &amp; Mat</tspan></text>
      <g id="Group_17465" data-name="Group 17465" transform="translate(13 -134.792)">
        <g transform="matrix(1, 0, 0, 1, 685.81, 285.79)" filter="url(#Rectangle_149509-4)">
          <rect id="Rectangle_149509-17" data-name="Rectangle 149509" width="361.11" height="20.191" transform="translate(139.63 80)" fill="#fff"/>
        </g>
        <rect id="Rectangle_149513-4" data-name="Rectangle 149513" width="64.721" height="20.191" transform="translate(825.445 365.792)" fill="#b3007e"/>
        <rect id="Rectangle_149512-3" data-name="Rectangle 149512" width="93.721" height="20.191" transform="translate(889.752 365.792)" fill="#0056a6"/>
        <rect id="Rectangle_149511-3" data-name="Rectangle 149511" width="62.659" height="20.191" transform="translate(982.091 365.792)" fill="#009fe4"/>
        <rect id="Rectangle_149510-2" data-name="Rectangle 149510" width="82.838" height="20.191" transform="translate(1038.153 365.792)" fill="#888"/>
      </g>
      <path id="Line_1" data-name="Line 1" d="M.5,453h-1v-3h1Zm0-6h-1v-3h1Zm0-6h-1v-3h1Zm0-6h-1v-3h1Zm0-6h-1v-3h1Zm0-6h-1v-3h1Zm0-6h-1v-3h1Zm0-6h-1v-3h1Zm0-6h-1v-3h1Zm0-6h-1v-3h1Zm0-6h-1v-3h1Zm0-6h-1v-3h1Zm0-6h-1v-3h1Zm0-6h-1v-3h1Zm0-6h-1v-3h1Zm0-6h-1v-3h1Zm0-6h-1v-3h1Zm0-6h-1v-3h1Zm0-6h-1v-3h1Zm0-6h-1v-3h1Zm0-6h-1v-3h1Zm0-6h-1v-3h1Zm0-6h-1v-3h1Zm0-6h-1v-3h1Zm0-6h-1v-3h1Zm0-6h-1v-3h1Zm0-6h-1v-3h1Zm0-6h-1v-3h1Zm0-6h-1v-3h1Zm0-6h-1v-3h1Zm0-6h-1v-3h1Zm0-6h-1v-3h1Zm0-6h-1v-3h1Zm0-6h-1v-3h1Zm0-6h-1v-3h1Zm0-6h-1v-3h1Zm0-6h-1v-3h1Zm0-6h-1v-3h1Zm0-6h-1v-3h1Zm0-6h-1v-3h1Zm0-6h-1v-3h1Zm0-6h-1v-3h1Zm0-6h-1v-3h1Zm0-6h-1v-3h1Zm0-6h-1v-3h1Zm0-6h-1v-3h1Zm0-6h-1v-3h1Zm0-6h-1v-3h1Zm0-6h-1v-3h1Zm0-6h-1v-3h1Zm0-6h-1v-3h1Zm0-6h-1v-3h1Zm0-6h-1v-3h1Zm0-6h-1v-3h1Zm0-6h-1v-3h1Zm0-6h-1v-3h1Zm0-6h-1v-3h1Zm0-6h-1v-3h1Zm0-6h-1v-3h1Zm0-6h-1V96h1Zm0-6h-1V90h1Zm0-6h-1V84h1Zm0-6h-1V78h1Zm0-6h-1V72h1Zm0-6h-1V66h1Zm0-6h-1V60h1Zm0-6h-1V54h1Zm0-6h-1V48h1Zm0-6h-1V42h1Zm0-6h-1V36h1Zm0-6h-1V30h1Zm0-6h-1V24h1Zm0-6h-1V18h1Zm0-6h-1V12h1Zm0-6h-1V6h1Zm0-6h-1V0h1Z" transform="translate(839.5 231)" fill="#151d21"/>
      <g id="Group_17466" data-name="Group 17466" transform="translate(13 -98.792)">
        <g transform="matrix(1, 0, 0, 1, 685.81, 249.79)" filter="url(#Rectangle_149509-5)">
          <rect id="Rectangle_149509-18" data-name="Rectangle 149509" width="361.11" height="20.191" transform="translate(139.63 116)" fill="#fff"/>
        </g>
        <rect id="Rectangle_149513-5" data-name="Rectangle 149513" width="64.721" height="20.191" transform="translate(825.445 365.792)" fill="#b3007e"/>
        <rect id="Rectangle_149512-4" data-name="Rectangle 149512" width="56.721" height="20.191" transform="translate(889.752 365.792)" fill="#0056a6"/>
        <rect id="Rectangle_149511-4" data-name="Rectangle 149511" width="101.659" height="20.191" transform="translate(943.091 365.792)" fill="#009fe4"/>
        <rect id="Rectangle_149510-3" data-name="Rectangle 149510" width="16.838" height="20.191" transform="translate(1038.153 365.792)" fill="#888"/>
      </g>
      <g id="Group_17467" data-name="Group 17467" transform="translate(12.944 -62.792)">
        <g transform="matrix(1, 0, 0, 1, 685.87, 213.79)" filter="url(#Rectangle_149509-6)">
          <rect id="Rectangle_149509-19" data-name="Rectangle 149509" width="361.11" height="20.191" transform="translate(139.58 152)" fill="#fff"/>
        </g>
        <rect id="Rectangle_149512-5" data-name="Rectangle 149512" width="93.721" height="20.191" transform="translate(889.752 365.792)" fill="#0056a6"/>
        <rect id="Rectangle_149511-5" data-name="Rectangle 149511" width="42.659" height="20.191" transform="translate(982.091 365.792)" fill="#009fe4"/>
        <rect id="Rectangle_149510-4" data-name="Rectangle 149510" width="25.838" height="20.191" transform="translate(1010.153 365.792)" fill="#888"/>
        <rect id="Rectangle_149513-6" data-name="Rectangle 149513" width="106.721" height="20.191" transform="translate(825.445 365.792)" fill="#b3007e"/>
      </g>
      <g id="Group_17468" data-name="Group 17468" transform="translate(12.944 -26.792)">
        <g transform="matrix(1, 0, 0, 1, 685.87, 177.79)" filter="url(#Rectangle_149509-7)">
          <rect id="Rectangle_149509-20" data-name="Rectangle 149509" width="361.11" height="20.191" transform="translate(139.58 188)" fill="#fff"/>
        </g>
        <rect id="Rectangle_149513-7" data-name="Rectangle 149513" width="64.721" height="20.191" transform="translate(825.445 365.792)" fill="#b3007e"/>
        <path id="Path_45370" data-name="Path 45370" d="M0,0H62.659V20.191H0Z" transform="translate(982.091 365.792)" fill="#009fe4"/>
        <rect id="Rectangle_149510-5" data-name="Rectangle 149510" width="11.838" height="20.191" transform="translate(1038.153 365.792)" fill="#888"/>
        <rect id="Rectangle_149512-6" data-name="Rectangle 149512" width="124.721" height="20.191" transform="translate(873.752 365.792)" fill="#0056a6"/>
      </g>
      <g id="Group_17470" data-name="Group 17470" transform="translate(12.944 45.208)">
        <g transform="matrix(1, 0, 0, 1, 685.87, 105.79)" filter="url(#Rectangle_149509-8)">
          <rect id="Rectangle_149509-21" data-name="Rectangle 149509" width="361.11" height="20.191" transform="translate(139.58 260)" fill="#fff"/>
        </g>
        <rect id="Rectangle_149512-7" data-name="Rectangle 149512" width="93.721" height="20.191" transform="translate(889.752 365.792)" fill="#0056a6"/>
        <rect id="Rectangle_149511-6" data-name="Rectangle 149511" width="62.659" height="20.191" transform="translate(982.091 365.792)" fill="#009fe4"/>
        <rect id="Rectangle_149510-6" data-name="Rectangle 149510" width="41.838" height="20.191" transform="translate(1038.153 365.792)" fill="#888"/>
        <rect id="Rectangle_149513-8" data-name="Rectangle 149513" width="105.721" height="20.191" transform="translate(825.445 365.792)" fill="#a61f7d"/>
      </g>
      <g id="Group_17471" data-name="Group 17471" transform="translate(12.889 81.208)">
        <g transform="matrix(1, 0, 0, 1, 685.92, 69.79)" filter="url(#Rectangle_149509-9)">
          <rect id="Rectangle_149509-22" data-name="Rectangle 149509" width="361.11" height="20.191" transform="translate(139.52 296)" fill="#fff"/>
        </g>
        <rect id="Rectangle_149513-9" data-name="Rectangle 149513" width="64.721" height="20.191" transform="translate(825.445 365.792)" fill="#b3007e"/>
        <rect id="Rectangle_149512-8" data-name="Rectangle 149512" width="93.721" height="20.191" transform="translate(889.752 365.792)" fill="#0056a6"/>
        <rect id="Rectangle_149511-7" data-name="Rectangle 149511" width="62.659" height="20.191" transform="translate(982.091 365.792)" fill="#009fe4"/>
        <rect id="Rectangle_149510-7" data-name="Rectangle 149510" width="41.838" height="20.191" transform="translate(1038.153 365.792)" fill="#888"/>
      </g>
      <g id="Group_17473" data-name="Group 17473" transform="translate(13.527 153.208)">
        <g transform="matrix(1, 0, 0, 1, 685.29, -2.21)" filter="url(#Rectangle_149509-10)">
          <rect id="Rectangle_149509-23" data-name="Rectangle 149509" width="361.11" height="20.191" transform="translate(140.16 368)" fill="#fff"/>
        </g>
        <rect id="Rectangle_149513-10" data-name="Rectangle 149513" width="64.721" height="20.191" transform="translate(825.445 365.792)" fill="#b3007e"/>
        <rect id="Rectangle_149512-9" data-name="Rectangle 149512" width="33.721" height="20.191" transform="translate(889.752 365.792)" fill="#0056a6"/>
      </g>
      <g id="Group_17474" data-name="Group 17474" transform="translate(13.527 189.208)">
        <g transform="matrix(1, 0, 0, 1, 685.29, -38.21)" filter="url(#Rectangle_149509-11)">
          <rect id="Rectangle_149509-24" data-name="Rectangle 149509" width="361.11" height="20.191" transform="translate(140.16 404)" fill="#fff"/>
        </g>
        <rect id="Rectangle_149513-11" data-name="Rectangle 149513" width="37.721" height="20.191" transform="translate(825.445 365.792)" fill="#b3007e"/>
        <rect id="Rectangle_149510-8" data-name="Rectangle 149510" width="41.838" height="20.191" transform="translate(848.153 365.792)" fill="#888"/>
      </g>
      <g id="Group_17469" data-name="Group 17469" transform="translate(12.944 9.208)">
        <g transform="matrix(1, 0, 0, 1, 685.87, 141.79)" filter="url(#Rectangle_149509-12)">
          <rect id="Rectangle_149509-25" data-name="Rectangle 149509" width="361.11" height="20.191" transform="translate(139.58 224)" fill="#fff"/>
        </g>
        <rect id="Rectangle_149512-10" data-name="Rectangle 149512" width="93.721" height="20.191" transform="translate(889.752 365.792)" fill="#0056a6"/>
        <rect id="Rectangle_149510-9" data-name="Rectangle 149510" width="28.838" height="20.191" transform="translate(983.473 365.792)" fill="#888"/>
        <rect id="Rectangle_149513-12" data-name="Rectangle 149513" width="141.721" height="20.191" transform="translate(825.445 365.792)" fill="#b3007e"/>
      </g>
      <path id="Path_45369" data-name="Path 45369" d="M.5,453h-1v-3h1Zm0-6h-1v-3h1Zm0-6h-1v-3h1Zm0-6h-1v-3h1Zm0-6h-1v-3h1Zm0-6h-1v-3h1Zm0-6h-1v-3h1Zm0-6h-1v-3h1Zm0-6h-1v-3h1Zm0-6h-1v-3h1Zm0-6h-1v-3h1Zm0-6h-1v-3h1Zm0-6h-1v-3h1Zm0-6h-1v-3h1Zm0-6h-1v-3h1Zm0-6h-1v-3h1Zm0-6h-1v-3h1Zm0-6h-1v-3h1Zm0-6h-1v-3h1Zm0-6h-1v-3h1Zm0-6h-1v-3h1Zm0-6h-1v-3h1Zm0-6h-1v-3h1Zm0-6h-1v-3h1Zm0-6h-1v-3h1Zm0-6h-1v-3h1Zm0-6h-1v-3h1Zm0-6h-1v-3h1Zm0-6h-1v-3h1Zm0-6h-1v-3h1Zm0-6h-1v-3h1Zm0-6h-1v-3h1Zm0-6h-1v-3h1Zm0-6h-1v-3h1Zm0-6h-1v-3h1Zm0-6h-1v-3h1Zm0-6h-1v-3h1Zm0-6h-1v-3h1Zm0-6h-1v-3h1Zm0-6h-1v-3h1Zm0-6h-1v-3h1Zm0-6h-1v-3h1Zm0-6h-1v-3h1Zm0-6h-1v-3h1Zm0-6h-1v-3h1Zm0-6h-1v-3h1Zm0-6h-1v-3h1Zm0-6h-1v-3h1Zm0-6h-1v-3h1Zm0-6h-1v-3h1Zm0-6h-1v-3h1Zm0-6h-1v-3h1Zm0-6h-1v-3h1Zm0-6h-1v-3h1Zm0-6h-1v-3h1Zm0-6h-1v-3h1Zm0-6h-1v-3h1Zm0-6h-1v-3h1Zm0-6h-1v-3h1Zm0-6h-1V96h1Zm0-6h-1V90h1Zm0-6h-1V84h1Zm0-6h-1V78h1Zm0-6h-1V72h1Zm0-6h-1V66h1Zm0-6h-1V60h1Zm0-6h-1V54h1Zm0-6h-1V48h1Zm0-6h-1V42h1Zm0-6h-1V36h1Zm0-6h-1V30h1Zm0-6h-1V24h1Zm0-6h-1V18h1Zm0-6h-1V12h1Zm0-6h-1V6h1Zm0-6h-1V0h1Z" transform="translate(1199.5 231)" fill="#151d21"/>
      <path id="Line_2" data-name="Line 2" d="M.5,453h-1v-3h1Zm0-6h-1v-3h1Zm0-6h-1v-3h1Zm0-6h-1v-3h1Zm0-6h-1v-3h1Zm0-6h-1v-3h1Zm0-6h-1v-3h1Zm0-6h-1v-3h1Zm0-6h-1v-3h1Zm0-6h-1v-3h1Zm0-6h-1v-3h1Zm0-6h-1v-3h1Zm0-6h-1v-3h1Zm0-6h-1v-3h1Zm0-6h-1v-3h1Zm0-6h-1v-3h1Zm0-6h-1v-3h1Zm0-6h-1v-3h1Zm0-6h-1v-3h1Zm0-6h-1v-3h1Zm0-6h-1v-3h1Zm0-6h-1v-3h1Zm0-6h-1v-3h1Zm0-6h-1v-3h1Zm0-6h-1v-3h1Zm0-6h-1v-3h1Zm0-6h-1v-3h1Zm0-6h-1v-3h1Zm0-6h-1v-3h1Zm0-6h-1v-3h1Zm0-6h-1v-3h1Zm0-6h-1v-3h1Zm0-6h-1v-3h1Zm0-6h-1v-3h1Zm0-6h-1v-3h1Zm0-6h-1v-3h1Zm0-6h-1v-3h1Zm0-6h-1v-3h1Zm0-6h-1v-3h1Zm0-6h-1v-3h1Zm0-6h-1v-3h1Zm0-6h-1v-3h1Zm0-6h-1v-3h1Zm0-6h-1v-3h1Zm0-6h-1v-3h1Zm0-6h-1v-3h1Zm0-6h-1v-3h1Zm0-6h-1v-3h1Zm0-6h-1v-3h1Zm0-6h-1v-3h1Zm0-6h-1v-3h1Zm0-6h-1v-3h1Zm0-6h-1v-3h1Zm0-6h-1v-3h1Zm0-6h-1v-3h1Zm0-6h-1v-3h1Zm0-6h-1v-3h1Zm0-6h-1v-3h1Zm0-6h-1v-3h1Zm0-6h-1V96h1Zm0-6h-1V90h1Zm0-6h-1V84h1Zm0-6h-1V78h1Zm0-6h-1V72h1Zm0-6h-1V66h1Zm0-6h-1V60h1Zm0-6h-1V54h1Zm0-6h-1V48h1Zm0-6h-1V42h1Zm0-6h-1V36h1Zm0-6h-1V30h1Zm0-6h-1V24h1Zm0-6h-1V18h1Zm0-6h-1V12h1Zm0-6h-1V6h1Zm0-6h-1V0h1Z" transform="translate(929.5 231)" fill="#151d21"/>
      <g id="Group_17472" data-name="Group 17472" transform="translate(12.889 117.208)">
        <g transform="matrix(1, 0, 0, 1, 685.92, 33.79)" filter="url(#Rectangle_149509-13)">
          <rect id="Rectangle_149509-26" data-name="Rectangle 149509" width="361.11" height="20.191" transform="translate(139.52 332)" fill="#fff"/>
        </g>
        <rect id="Rectangle_149512-11" data-name="Rectangle 149512" width="93.721" height="20.191" transform="translate(889.752 365.792)" fill="#0056a6"/>
        <rect id="Rectangle_149511-8" data-name="Rectangle 149511" width="15.659" height="20.191" transform="translate(982.091 365.792)" fill="#009fe4"/>
        <rect id="Rectangle_149510-10" data-name="Rectangle 149510" width="19.838" height="20.191" transform="translate(997.749 365.792)" fill="#888"/>
        <rect id="Rectangle_149513-13" data-name="Rectangle 149513" width="111.167" height="20.191" transform="translate(825.445 365.792)" fill="#b3007e"/>
      </g>
      <path id="Line_3" data-name="Line 3" d="M.5,453h-1v-3h1Zm0-6h-1v-3h1Zm0-6h-1v-3h1Zm0-6h-1v-3h1Zm0-6h-1v-3h1Zm0-6h-1v-3h1Zm0-6h-1v-3h1Zm0-6h-1v-3h1Zm0-6h-1v-3h1Zm0-6h-1v-3h1Zm0-6h-1v-3h1Zm0-6h-1v-3h1Zm0-6h-1v-3h1Zm0-6h-1v-3h1Zm0-6h-1v-3h1Zm0-6h-1v-3h1Zm0-6h-1v-3h1Zm0-6h-1v-3h1Zm0-6h-1v-3h1Zm0-6h-1v-3h1Zm0-6h-1v-3h1Zm0-6h-1v-3h1Zm0-6h-1v-3h1Zm0-6h-1v-3h1Zm0-6h-1v-3h1Zm0-6h-1v-3h1Zm0-6h-1v-3h1Zm0-6h-1v-3h1Zm0-6h-1v-3h1Zm0-6h-1v-3h1Zm0-6h-1v-3h1Zm0-6h-1v-3h1Zm0-6h-1v-3h1Zm0-6h-1v-3h1Zm0-6h-1v-3h1Zm0-6h-1v-3h1Zm0-6h-1v-3h1Zm0-6h-1v-3h1Zm0-6h-1v-3h1Zm0-6h-1v-3h1Zm0-6h-1v-3h1Zm0-6h-1v-3h1Zm0-6h-1v-3h1Zm0-6h-1v-3h1Zm0-6h-1v-3h1Zm0-6h-1v-3h1Zm0-6h-1v-3h1Zm0-6h-1v-3h1Zm0-6h-1v-3h1Zm0-6h-1v-3h1Zm0-6h-1v-3h1Zm0-6h-1v-3h1Zm0-6h-1v-3h1Zm0-6h-1v-3h1Zm0-6h-1v-3h1Zm0-6h-1v-3h1Zm0-6h-1v-3h1Zm0-6h-1v-3h1Zm0-6h-1v-3h1Zm0-6h-1V96h1Zm0-6h-1V90h1Zm0-6h-1V84h1Zm0-6h-1V78h1Zm0-6h-1V72h1Zm0-6h-1V66h1Zm0-6h-1V60h1Zm0-6h-1V54h1Zm0-6h-1V48h1Zm0-6h-1V42h1Zm0-6h-1V36h1Zm0-6h-1V30h1Zm0-6h-1V24h1Zm0-6h-1V18h1Zm0-6h-1V12h1Zm0-6h-1V6h1Zm0-6h-1V0h1Z" transform="translate(1019.5 231)" fill="#151d21"/>
      <path id="Path_45368" data-name="Path 45368" d="M.5,453h-1v-3h1Zm0-6h-1v-3h1Zm0-6h-1v-3h1Zm0-6h-1v-3h1Zm0-6h-1v-3h1Zm0-6h-1v-3h1Zm0-6h-1v-3h1Zm0-6h-1v-3h1Zm0-6h-1v-3h1Zm0-6h-1v-3h1Zm0-6h-1v-3h1Zm0-6h-1v-3h1Zm0-6h-1v-3h1Zm0-6h-1v-3h1Zm0-6h-1v-3h1Zm0-6h-1v-3h1Zm0-6h-1v-3h1Zm0-6h-1v-3h1Zm0-6h-1v-3h1Zm0-6h-1v-3h1Zm0-6h-1v-3h1Zm0-6h-1v-3h1Zm0-6h-1v-3h1Zm0-6h-1v-3h1Zm0-6h-1v-3h1Zm0-6h-1v-3h1Zm0-6h-1v-3h1Zm0-6h-1v-3h1Zm0-6h-1v-3h1Zm0-6h-1v-3h1Zm0-6h-1v-3h1Zm0-6h-1v-3h1Zm0-6h-1v-3h1Zm0-6h-1v-3h1Zm0-6h-1v-3h1Zm0-6h-1v-3h1Zm0-6h-1v-3h1Zm0-6h-1v-3h1Zm0-6h-1v-3h1Zm0-6h-1v-3h1Zm0-6h-1v-3h1Zm0-6h-1v-3h1Zm0-6h-1v-3h1Zm0-6h-1v-3h1Zm0-6h-1v-3h1Zm0-6h-1v-3h1Zm0-6h-1v-3h1Zm0-6h-1v-3h1Zm0-6h-1v-3h1Zm0-6h-1v-3h1Zm0-6h-1v-3h1Zm0-6h-1v-3h1Zm0-6h-1v-3h1Zm0-6h-1v-3h1Zm0-6h-1v-3h1Zm0-6h-1v-3h1Zm0-6h-1v-3h1Zm0-6h-1v-3h1Zm0-6h-1v-3h1Zm0-6h-1V96h1Zm0-6h-1V90h1Zm0-6h-1V84h1Zm0-6h-1V78h1Zm0-6h-1V72h1Zm0-6h-1V66h1Zm0-6h-1V60h1Zm0-6h-1V54h1Zm0-6h-1V48h1Zm0-6h-1V42h1Zm0-6h-1V36h1Zm0-6h-1V30h1Zm0-6h-1V24h1Zm0-6h-1V18h1Zm0-6h-1V12h1Zm0-6h-1V6h1Zm0-6h-1V0h1Z" transform="translate(1109.5 231)" fill="#151d21"/>
    </g>
    <g id="Group_17423" data-name="Group 17423" transform="translate(259.066 5)">
      <text id="PdM_par_enseigne_" data-name="PdM par enseigne " transform="translate(530 185)" fill="#151d21" font-size="18" font-family="NunitoSans-SemiBold, Nunito Sans" font-weight="600" letter-spacing="-0.005em"><tspan x="-74.961" y="0">PdM par enseigne </tspan></text>
      <path id="Path_45340" data-name="Path 45340" d="M10760.878,3342.1H10581v-.2h179.878Z" transform="translate(-10141.253 -3148)" fill="#707070"/>
    </g>
    <g id="Component_17_11" data-name="Component 17 – 11" transform="translate(715 204)">
      <g id="Group_17839" data-name="Group 17839" transform="translate(-715 -214)" opacity="0">
        <g transform="matrix(1, 0, 0, 1, 698.81, 182)" filter="url(#Rectangle_149744)">
          <rect id="Rectangle_149744-2" data-name="Rectangle 149744" width="142" height="127" transform="translate(16.19 32)" fill="#fff"/>
        </g>
        <text id="Purs_spécialistes_" data-name="Purs spécialistes " transform="translate(775.5 256.979)" fill="rgba(0,0,0,0.85)" stroke="#fff" stroke-width="0.2" font-size="13" font-family="NunitoSans-Regular, Nunito Sans" letter-spacing="-0.005em"><tspan x="-49.237" y="0">Purs spécialistes </tspan></text>
        <text id="Multi_spécialistes_" data-name="Multi spécialistes " transform="translate(776.5 281.172)" fill="rgba(0,0,0,0.85)" stroke="#fff" stroke-width="0.2" font-size="13" font-family="NunitoSans-Regular, Nunito Sans" letter-spacing="-0.005em"><tspan x="-50.362" y="0">Multi spécialistes </tspan></text>
        <text id="Généralistes_" data-name="Généralistes " transform="translate(763.5 304.313)" fill="rgba(0,0,0,0.85)" stroke="#fff" stroke-width="0.2" font-size="13" font-family="NunitoSans-Regular, Nunito Sans" letter-spacing="-0.005em"><tspan x="-37.108" y="0">Généralistes </tspan></text>
        <text id="Autres-2" data-name="Autres" transform="translate(745.5 328.896)" fill="rgba(0,0,0,0.85)" stroke="#fff" stroke-width="0.2" font-size="13" font-family="NunitoSans-Regular, Nunito Sans" letter-spacing="-0.005em"><tspan x="-19.194" y="0">Autres</tspan></text>
        <path id="Path_45446" data-name="Path 45446" d="M6874.437-1973.888H7013.7" transform="translate(-6158 2213)" fill="none" stroke="#151d21" stroke-width="0.3"/>
      </g>
      <g id="Filter" transform="translate(9.252 4)">
        <text id="Last_Week" data-name="Last Week" transform="translate(0 14)" fill="#151d21" font-size="14" font-family="NunitoSans-Regular, Nunito Sans"><tspan x="0" y="0">Tous segments </tspan></text>
        <path id="icon" d="M5.954,7.349,11.908,1.4,10.512,0,5.954,4.558,1.4,0,0,1.4Z" transform="translate(106.116 6.825)" fill="#151d21"/>
      </g>
    </g>
  </g>
</svg>
