<svg xmlns="http://www.w3.org/2000/svg" width="551" height="269.367" viewBox="0 0 551 269.367">
  <g id="Group_17870" data-name="Group 17870" transform="translate(-113 -171.089)">
    <g id="Group_17522" data-name="Group 17522" transform="translate(-10.572 11.496)">
      <g id="Component_8_1" data-name="Component 8 – 1" transform="translate(354.647 210.593)">
        <path id="Path_45328" data-name="Path 45328" d="M3193.757,1053.023v96.156c0,.007,0,.014,0,.02a.257.257,0,0,1,0,.031c0,.014-.005.027-.006.041,0,.035-.011.07-.019.1s0,.052-.011.076l0,.01c-.006.02-.017.039-.025.059s0,.026-.009.039-.023.033-.031.052-.022.057-.036.083l-.009.014h0L3144.2,1232.2a96.166,96.166,0,1,0,49.557-179.173Z" transform="translate(-3144.2 -1053.023)" fill="#888"/>
      </g>
      <path id="Path_45327" data-name="Path 45327" d="M2886.013,1526.139a95.455,95.455,0,0,0,45.886,81.982l48.62-81.176-93.889-11.736A97.64,97.64,0,0,0,2886.013,1526.139Z" transform="translate(-2578.976 -1219.39)" fill="#e1962a"/>
      <g id="Group_17437" data-name="Group 17437" transform="translate(236 330.4)">
        <path id="Path_44487" data-name="Path 44487" d="M2652.479,1300.535h-66.573v-.4h66.381l33.469-41.717.312.25Z" transform="translate(-2568.949 -1258.543)" fill="#151d21"/>
        <text id="Multi_spécialistes" data-name="Multi spécialistes" transform="translate(38.595 35.764)" fill="#151d21" font-size="12" font-family="Roboto-Regular, Roboto" letter-spacing="-0.005em"><tspan x="-46.131" y="0">Multi spécialistes</tspan></text>
        <text id="_72_668_KM2" data-name="72 668  KM2" transform="translate(70.595 56.709)" fill="#151d21" font-size="12" font-family="Roboto-Light, Roboto" font-weight="300"><tspan x="-63.838" y="0" xml:space="preserve">72 668  KM</tspan><tspan y="0" font-size="7" baseline-shift="3.9995999620726357">2</tspan></text>
      </g>
      <path id="Path_45330" data-name="Path 45330" d="M3071.546,1147.143v-94.12a95.5,95.5,0,0,0-74.723,36.9l25.649,19.642Z" transform="translate(-2669.353 -842.43)" fill="#dedede"/>
      <path id="Path_45329" data-name="Path 45329" d="M2890.7,1306.5l70.862,8.857,20.879,2.61-59.981-45.935-13.414-10.272A95.892,95.892,0,0,0,2890.7,1306.5Z" transform="translate(-2582.799 -1012.679)" fill="#dc6206"/>
    </g>
    <g id="Group_17421" data-name="Group 17421" transform="translate(-333.5 3.089)">
      <text id="Potentiel_en_volume_212_648_Km2" data-name="Potentiel en volume 
212 648 Km2" transform="translate(530 185)" fill="#151d21" font-size="18" font-family="Roboto-Regular, Roboto" letter-spacing="-0.005em"><tspan x="-80.294" y="0">Potentiel en volume </tspan><tspan font-size="16"><tspan x="-45.072" y="30">212 648 Km</tspan><tspan y="30" font-size="9.333" baseline-shift="5.33279994943018">2</tspan></tspan></text>
      <path id="Path_45340" data-name="Path 45340" d="M10740.428,3342.1H10581v-.2h159.428Z" transform="translate(-10134.5 -3148)" fill="#707070"/>
    </g>
    <g id="Group_17426" data-name="Group 17426" transform="translate(50 -114.544)">
      <rect id="Rectangle_149501" data-name="Rectangle 149501" width="11" height="11" transform="translate(506 491)" fill="#888"/>
      <rect id="Rectangle_149502" data-name="Rectangle 149502" width="11" height="11" transform="translate(506 525)" fill="#dedede"/>
      <rect id="Rectangle_149503" data-name="Rectangle 149503" width="11" height="11" transform="translate(506 542)" fill="#dc6206"/>
      <rect id="Rectangle_149504" data-name="Rectangle 149504" width="11" height="11" transform="translate(506 508)" fill="#e1962a"/>
      <text id="Généraliste" transform="translate(553 500)" fill="rgba(0,0,0,0.85)" font-size="12" font-family="Roboto-Light, Roboto" font-weight="300" letter-spacing="-0.005em"><tspan x="-29.167" y="0">Généraliste</tspan></text>
      <text id="Multi_spécialistes-2" data-name="Multi spécialistes" transform="translate(569 517)" fill="rgba(0,0,0,0.85)" font-size="12" font-family="Roboto-Light, Roboto" font-weight="300" letter-spacing="-0.005em"><tspan x="-44.959" y="0">Multi spécialistes</tspan></text>
      <text id="Purs_spécialistes" data-name="Purs spécialistes" transform="translate(568 535)" fill="rgba(0,0,0,0.85)" font-size="12" font-family="Roboto-Light, Roboto" font-weight="300" letter-spacing="-0.005em"><tspan x="-43.931" y="0">Purs spécialistes</tspan></text>
      <text id="Autres" transform="translate(541 552)" fill="rgba(0,0,0,0.85)" font-size="12" font-family="Roboto-Light, Roboto" font-weight="300" letter-spacing="-0.005em"><tspan x="-16.889" y="0">Autres</tspan></text>
    </g>
  </g>
</svg>
