<svg xmlns="http://www.w3.org/2000/svg" width="22.294" height="22.294" viewBox="0 0 22.294 22.294">
  <path id="Path_45456" data-name="Path 45456" d="M16.147,4.8A11.147,11.147,0,1,0,27.294,15.947,11.132,11.132,0,0,0,16.147,4.8Zm1.412,16.275c-.446.173-.817.322-1.09.4a2.586,2.586,0,0,1-.694.1,1.126,1.126,0,0,1-.892-.322,1.066,1.066,0,0,1-.3-.768,1.635,1.635,0,0,1,.025-.347c.025-.124.05-.272.1-.471l.793-3.171c.05-.173.074-.372.124-.57a2.036,2.036,0,0,0,.05-.52.716.716,0,0,0-.149-.545.786.786,0,0,0-.57-.149c-.1,0-.248.025-.446.05a3.611,3.611,0,0,0-.421.1l.124-.471c.4-.173.743-.3,1.04-.4A3.29,3.29,0,0,1,16,13.866a1.211,1.211,0,0,1,.892.3,1.137,1.137,0,0,1,.272.793,2.139,2.139,0,0,1-.025.372,4.025,4.025,0,0,1-.1.471l-.793,3.171c-.05.2-.1.4-.124.57a4.368,4.368,0,0,0-.05.471.816.816,0,0,0,.2.595.986.986,0,0,0,.619.149,1.309,1.309,0,0,0,.4-.05,2.248,2.248,0,0,0,.4-.1Zm.372-9.264a.845.845,0,0,1-.694.322.924.924,0,0,1-.669-.3,1.017,1.017,0,0,1-.272-.694,1.079,1.079,0,0,1,.272-.718.848.848,0,0,1,.669-.3.9.9,0,0,1,.694.3,1,1,0,0,1,.272.669A1.048,1.048,0,0,1,17.931,11.81Z" transform="translate(-5 -4.8)" fill="#888"/>
</svg>
