<svg xmlns="http://www.w3.org/2000/svg" width="19.554" height="19.57" viewBox="0 0 19.554 19.57">
  <g id="noun_Stop_1877398" transform="translate(-5.995 -5.961)">
    <g id="Group_17874" data-name="Group 17874" transform="translate(5.995 5.961)">
      <path id="Path_45450" data-name="Path 45450" d="M17.57,0H.61C.277,0,0,.159,0,.349v1.4a.278.278,0,0,0,.163.237l.016.01L.2,2a.826.826,0,0,0,.413.094H17.57c.332,0,.61-.159.61-.349V.349C18.179.159,17.9,0,17.57,0Z" transform="translate(3.143 16.032) rotate(-50)" fill="red"/>
      <path id="Path_45451" data-name="Path 45451" d="M20.151,7.007A9.771,9.771,0,0,0,6.065,14.459,9.91,9.91,0,0,0,13.46,25.241a9.883,9.883,0,0,0,11.431-6.029A9.864,9.864,0,0,0,20.151,7.007Zm-4.4,17.575A8.965,8.965,0,0,1,6.91,15.737a8.936,8.936,0,0,1,8.845-8.845A8.936,8.936,0,0,1,24.6,15.737,8.936,8.936,0,0,1,15.755,24.582Z" transform="translate(-5.995 -5.961)" fill="red"/>
    </g>
  </g>
</svg>
