<svg xmlns="http://www.w3.org/2000/svg" width="19.554" height="19.57" viewBox="0 0 19.554 19.57">
  <g id="Group_17880" data-name="Group 17880" transform="translate(-1026 -121)">
    <g id="noun_Stop_1877398" transform="translate(1020.005 115.039)">
      <g id="Group_17874" data-name="Group 17874" transform="translate(5.995 5.961)">
        <path id="Path_45451" data-name="Path 45451" d="M20.151,7.007A9.771,9.771,0,0,0,6.065,14.459,9.91,9.91,0,0,0,13.46,25.241a9.883,9.883,0,0,0,11.431-6.029A9.864,9.864,0,0,0,20.151,7.007Zm-4.4,17.575A8.965,8.965,0,0,1,6.91,15.737a8.936,8.936,0,0,1,8.845-8.845A8.936,8.936,0,0,1,24.6,15.737,8.936,8.936,0,0,1,15.755,24.582Z" transform="translate(-5.995 -5.961)" fill="#4aa763"/>
      </g>
    </g>
    <g id="noun_correct_2383131" transform="translate(1022.509 114.496)">
      <path id="Path_45459" data-name="Path 45459" d="M20.382,12.717a.6.6,0,0,0-.846-.076l-9.15,7.58L7.561,16.711a.612.612,0,0,0-.846-.092.6.6,0,0,0-.092.841l3.206,3.985a.6.6,0,0,0,.413.219l.06,0a.593.593,0,0,0,.385-.139l9.619-7.97a.6.6,0,0,0,.076-.841Z" transform="translate(0)" fill="#4aa763"/>
    </g>
  </g>
</svg>
