<svg xmlns="http://www.w3.org/2000/svg" width="21.937" height="21.938" viewBox="0 0 21.937 21.938">
  <g transform="translate(-1157.031 -208.246)">
    <path id="Path_45456" data-name="Path 45456" d="M23.022,2.717a2.454,2.454,0,0,0-3.467,0l-.786.786-.963.963H3.438A1.442,1.442,0,0,0,2,5.908V22.3a1.44,1.44,0,0,0,1.438,1.438H19.831A1.442,1.442,0,0,0,21.273,22.3V7.933l.963-.963.786-.786a2.454,2.454,0,0,0,0-3.467ZM18.894,3.881,20.25,5.236,8.562,16.925,7.206,15.569ZM9.807,18.674,6.4,19.341l.668-3.409ZM20.916,22.3a1.085,1.085,0,0,1-1.085,1.082H3.438A1.083,1.083,0,0,1,2.356,22.3V5.908A1.085,1.085,0,0,1,3.438,4.822H17.449L6.828,15.443l0,0s-.006.009-.009.014a.173.173,0,0,0-.031.062s0,.007-.005.011l-.783,4a.178.178,0,0,0,.175.212.184.184,0,0,0,.034,0l4-.783s.007,0,.011-.005a.173.173,0,0,0,.063-.031l.014-.009,0,0L20.916,8.289ZM10.169,18.532,8.814,17.177,20.5,5.488l1.356,1.356Zm12.6-12.6-.66.66L19.146,3.629l.66-.66A2.1,2.1,0,0,1,22.77,5.932Z" transform="translate(1155.131 206.346)"/>
    <path id="Path_45456_-_Outline" data-name="Path 45456 - Outline" d="M21.288,1.9a2.55,2.55,0,0,1,1.8,4.354l-1.72,1.72V22.3a1.544,1.544,0,0,1-1.542,1.539H3.438A1.542,1.542,0,0,1,1.9,22.3V5.908A1.545,1.545,0,0,1,3.438,4.366H17.764l1.72-1.719A2.538,2.538,0,0,1,21.288,1.9ZM19.831,23.638A1.344,1.344,0,0,0,21.173,22.3V7.891l1.778-1.778a2.352,2.352,0,0,0-3.326-3.325L17.847,4.566H3.438A1.344,1.344,0,0,0,2.1,5.908V22.3a1.342,1.342,0,0,0,1.338,1.338ZM21.288,2.255A2.2,2.2,0,0,1,22.84,6l-.731.731-3.1-3.1.731-.731A2.181,2.181,0,0,1,21.288,2.255Zm.821,4.2.589-.59A2,2,0,1,0,19.877,3.04l-.59.589ZM18.894,3.74l1.5,1.5L8.562,17.066l-1.5-1.5Zm1.214,1.5L18.894,4.022,7.348,15.569l1.214,1.214ZM3.438,4.722H17.691L6.9,15.509l-.009.014a.073.073,0,0,0-.013.027.13.13,0,0,1-.007.018l-.78,3.984a.078.078,0,0,0,.077.093v0h.016l3.983-.78.017-.006a.074.074,0,0,0,.027-.013l.011-.008,0,0L21.016,8.048V22.3a1.187,1.187,0,0,1-1.185,1.182H3.438A1.185,1.185,0,0,1,2.256,22.3V5.908A1.187,1.187,0,0,1,3.438,4.722Zm13.77.2H3.438a.987.987,0,0,0-.982.985V22.3a.985.985,0,0,0,.982.982H19.831a.987.987,0,0,0,.985-.982V8.53L10.346,19,10.334,19a.27.27,0,0,1-.081.042.109.109,0,0,1-.033.011l-4,.782a.287.287,0,0,1-.053.005h0a.278.278,0,0,1-.273-.332l.783-4a.116.116,0,0,1,.011-.03.269.269,0,0,1,.042-.082.141.141,0,0,1,.011-.017l.012-.015Zm3.294.425,1.5,1.5L10.169,18.674l-1.5-1.5Zm1.214,1.5L20.5,5.63,8.955,17.177l1.214,1.214ZM7,15.728l3.007,3.008-3.74.732Zm2.6,2.883L7.127,16.135l-.6,3.079Z" transform="translate(1155.131 206.346)"/>
  </g>
</svg>
