<svg xmlns="http://www.w3.org/2000/svg" width="14.576" height="18.208" viewBox="0 0 14.576 18.208">
  <g id="Group_17830" data-name="Group 17830" transform="translate(-103.435 -124.372)">
    <path id="Path_45452" data-name="Path 45452" d="M110.177,125.528c.105.05.212.1.317.15a7.489,7.489,0,0,1,3.779,4.351,13.4,13.4,0,0,1,.744,4.255c0,.065,0,.13,0,.194a.49.49,0,0,0,.3.465.471.471,0,0,0,.552-.11c.288-.3.576-.6.845-.918a5.016,5.016,0,0,0,1.049-1.9c.059.113.11.209.157.306a9.271,9.271,0,0,1,.991,4.089,7.257,7.257,0,0,1-5.707,7.137,6.939,6.939,0,0,1-6.3-1.653,7.289,7.289,0,0,1-2.437-4.1,6.53,6.53,0,0,1,.289-3.569c.318-.912.623-1.828.9-2.752.159-.526.256-1.071.38-1.607.007-.03.016-.06.032-.12.078.087.144.154.2.226a3.821,3.821,0,0,1,.96,2.518c0,.362.219.585.537.539a.67.67,0,0,0,.354-.2,6.6,6.6,0,0,0,1.548-2.827,12.9,12.9,0,0,0,.493-4.083c0-.119-.006-.238-.008-.357C110.156,125.557,110.165,125.548,110.177,125.528Z" transform="translate(-0.899 -1.156)" fill="#f06d0c"/>
  </g>
</svg>
