<svg xmlns="http://www.w3.org/2000/svg" width="16.491" height="16.308" viewBox="0 0 16.491 16.308">
  <g id="noun_filter_4025563" transform="translate(-194.529 -327.57)">
    <g id="Group_17445" data-name="Group 17445" transform="translate(194.529 327.57)">
      <path id="Path_45347" data-name="Path 45347" d="M6.2,5.825A2.312,2.312,0,0,0,3.982,7.539H1.121a.589.589,0,1,0,0,1.178h2.86a2.293,2.293,0,0,0,4.439,0h8.013a.589.589,0,0,0,0-1.178H8.419A2.311,2.311,0,0,0,6.2,5.825Z" transform="translate(-0.529 5.872)" fill="#151d21"/>
      <path id="Path_45348" data-name="Path 45348" d="M10.778,3.127A2.309,2.309,0,0,0,8.559,4.842H1.121a.589.589,0,1,0,0,1.178H8.56A2.292,2.292,0,0,0,13,6.02h3.436a.589.589,0,0,0,0-1.178H13A2.309,2.309,0,0,0,10.778,3.127Z" transform="translate(-0.529 2.565)" fill="#151d21"/>
      <path id="Path_45349" data-name="Path 45349" d="M4.486.571A2.28,2.28,0,0,0,2.3,2.255H1.121a.589.589,0,1,0,0,1.178H2.3a2.263,2.263,0,0,0,4.37.029l9.766-.029a.589.589,0,0,0,0-1.178l-9.75.029A2.282,2.282,0,0,0,4.486.571Z" transform="translate(-0.529 -0.571)" fill="#151d21"/>
    </g>
  </g>
</svg>
