<svg xmlns="http://www.w3.org/2000/svg" width="27.476" height="20.353" viewBox="0 0 27.476 20.353">
  <g id="noun_analytic_2382049" transform="translate(-5 -12)">
    <g id="Group_17880" data-name="Group 17880" transform="translate(5 12)">
      <path id="Path_45459" data-name="Path 45459" d="M31.968,31.335H6.018V12.509a.509.509,0,0,0-1.018,0V31.844a.509.509,0,0,0,.509.509H31.968a.509.509,0,1,0,0-1.018Z" transform="translate(-5 -12)" fill="#151d21"/>
      <path id="Path_45460" data-name="Path 45460" d="M9.51,33.194a.5.5,0,0,0,.3-.1l4.005-2.913a2.025,2.025,0,0,0,3.088-.622l4.824,1.132a2.033,2.033,0,1,0,3.881-.871l7.605-6.085-.29,1.741a.509.509,0,1,0,1,.168l.509-3.053s0-.009,0-.013a.505.505,0,0,0-.01-.19c0-.005,0-.011,0-.017a.506.506,0,0,0-.093-.182l-.006-.005,0-.006a.492.492,0,0,0-.045-.034.51.51,0,0,0-.117-.089,1.212,1.212,0,0,0-.2-.051c-.009,0-.017-.006-.026-.006H30.88a.509.509,0,1,0,0,1.018h1.6l-7.509,6.008a2.02,2.02,0,0,0-3.013.678l-4.823-1.132a2.033,2.033,0,1,0-3.92.788L9.21,32.274a.509.509,0,0,0,.3.92Zm14.247-3.562a1,1,0,0,1,.793.384h0a1,1,0,0,1,.224.633,1.018,1.018,0,1,1-2.035,0,1.084,1.084,0,0,1,.027-.234h0A1.01,1.01,0,0,1,23.756,29.632ZM15.106,27.6a1.019,1.019,0,0,1,1.018,1.018,1.088,1.088,0,0,1-.027.234h0a1.014,1.014,0,0,1-1.816.353.967.967,0,0,1-.192-.589A1.019,1.019,0,0,1,15.106,27.6Z" transform="translate(-6.965 -16.912)" fill="#151d21"/>
    </g>
  </g>
</svg>
