<svg xmlns="http://www.w3.org/2000/svg" width="28" height="28" viewBox="0 0 28 28">
  <g id="Group_17886" data-name="Group 17886" transform="translate(-1152.632 -56.722)">
    <rect id="Rectangle_149748" data-name="Rectangle 149748" width="28" height="28" transform="translate(1152.632 56.722)" fill="#fff" opacity="0.002"/>
    <g id="noun_analytics_1253109" transform="translate(1154.155 60.46)">
      <g id="Group_17885" data-name="Group 17885" transform="translate(0 0)">
        <g id="Group_17883" data-name="Group 17883" transform="translate(3.725)">
          <g id="Group_17882" data-name="Group 17882">
            <g id="Group_17875" data-name="Group 17875" transform="translate(2.339 8.413)">
              <path id="Path_45448" data-name="Path 45448" d="M13.447,25.853a.259.259,0,0,1-.231-.379l2.13-4.112a.262.262,0,1,1,.44.279l-2.11,4.073A.26.26,0,0,1,13.447,25.853Z" transform="translate(-13.187 -21.221)" fill="#151d21"/>
              <path id="Path_45448_-_Outline" data-name="Path 45448 - Outline" d="M13.447,26a.409.409,0,0,1-.364-.6l2.13-4.112a.41.41,0,0,1,.234-.2.4.4,0,0,1,.131-.022.411.411,0,0,1,.336.649l-2.1,4.062A.409.409,0,0,1,13.447,26Zm2.132-4.632a.107.107,0,0,0-.035.006.113.113,0,0,0-.064.055l-2.13,4.111a.11.11,0,0,0,.047.148.113.113,0,0,0,.148-.047l2.124-4.1a.11.11,0,0,0,.016-.1A.112.112,0,0,0,15.578,21.371Z" transform="translate(-13.187 -21.221)" fill="#151d21"/>
            </g>
            <g id="Group_17876" data-name="Group 17876" transform="translate(6.639 7.736)">
              <path id="Path_45449" data-name="Path 45449" d="M26.672,23a.253.253,0,0,1-.12-.029l-4.939-2.567a.259.259,0,0,1,.239-.46l4.939,2.567a.259.259,0,0,1-.12.49Z" transform="translate(-21.474 -19.916)" fill="#151d21"/>
              <path id="Path_45449_-_Outline" data-name="Path 45449 - Outline" d="M26.672,23.152a.405.405,0,0,1-.19-.047l-4.938-2.566a.409.409,0,1,1,.379-.726l4.938,2.566a.409.409,0,0,1-.189.773Zm-4.939-3.086a.11.11,0,0,0-.051.207l4.939,2.567a.11.11,0,0,0,.147-.046.109.109,0,0,0-.046-.148l-4.939-2.567A.106.106,0,0,0,21.733,20.066Z" transform="translate(-21.474 -19.916)" fill="#151d21"/>
            </g>
            <g id="Group_17877" data-name="Group 17877" transform="translate(13.738 3.02)">
              <path id="Path_45450" data-name="Path 45450" d="M35.414,17.947a.26.26,0,0,1-.23-.379l3.437-6.6a.259.259,0,0,1,.46.239l-3.437,6.6A.259.259,0,0,1,35.414,17.947Z" transform="translate(-35.154 -10.827)" fill="#151d21"/>
              <path id="Path_45450_-_Outline" data-name="Path 45450 - Outline" d="M35.414,18.1a.411.411,0,0,1-.189-.046.409.409,0,0,1-.174-.552l3.437-6.6a.409.409,0,1,1,.726.378l-3.437,6.6A.407.407,0,0,1,35.414,18.1Zm3.437-7.12a.11.11,0,0,0-.1.059l-3.437,6.6a.109.109,0,0,0,.046.147.111.111,0,0,0,.147-.046l3.437-6.6a.109.109,0,0,0-.046-.147A.106.106,0,0,0,38.851,10.977Z" transform="translate(-35.154 -10.827)" fill="#151d21"/>
            </g>
            <g id="Group_17878" data-name="Group 17878" transform="translate(0 12.341)">
              <path id="Path_45451" data-name="Path 45451" d="M10.541,32.52a1.867,1.867,0,0,1-1.775-1.3h0a1.86,1.86,0,1,1,1.775,1.3Zm-1.28-1.459a1.345,1.345,0,1,0,.877-1.688,1.336,1.336,0,0,0-.877,1.688Z" transform="translate(-8.679 -28.791)" fill="#151d21"/>
              <path id="Path_45451_-_Outline" data-name="Path 45451 - Outline" d="M10.541,32.67a2.02,2.02,0,0,1-.926-.228,2,2,0,1,1,.926.228Zm0-3.729a1.714,1.714,0,1,0,1.636,1.2A1.7,1.7,0,0,0,10.542,28.941Zm0,3.21a1.5,1.5,0,1,1,.453-.07A1.494,1.494,0,0,1,10.541,32.151Zm0-2.692a1.181,1.181,0,0,0-.359.056,1.195,1.195,0,0,0-.191,2.2,1.177,1.177,0,0,0,.549.136,1.2,1.2,0,0,0,.362-.056,1.2,1.2,0,0,0-.362-2.335Z" transform="translate(-8.679 -28.791)" fill="#151d21"/>
            </g>
            <g id="Group_17879" data-name="Group 17879" transform="translate(3.61 5.386)">
              <path id="Path_45452" data-name="Path 45452" d="M17.5,19.115a1.867,1.867,0,0,1-1.779-1.3h0a1.862,1.862,0,1,1,1.779,1.3Zm0-3.21a1.355,1.355,0,0,0-.407.063,1.346,1.346,0,0,0-.877,1.688h0A1.344,1.344,0,1,0,17.5,15.905Z" transform="translate(-15.637 -15.386)" fill="#151d21"/>
              <path id="Path_45452_-_Outline" data-name="Path 45452 - Outline" d="M17.5,19.265a2.015,2.015,0,1,1,.606-.094A2.007,2.007,0,0,1,17.5,19.265Zm0-3.729a1.716,1.716,0,1,0,.789.194A1.714,1.714,0,0,0,17.5,15.536Zm0,3.21h0a1.5,1.5,0,0,1,0-2.992A1.5,1.5,0,0,1,18.927,16.8,1.5,1.5,0,0,1,17.5,18.747Zm0-2.692a1.206,1.206,0,0,0-.362.056,1.2,1.2,0,0,0,.359,2.335,1.209,1.209,0,0,0,.362-.056,1.195,1.195,0,0,0,.19-2.2A1.179,1.179,0,0,0,17.5,16.055Z" transform="translate(-15.637 -15.386)" fill="#151d21"/>
            </g>
            <g id="Group_17880" data-name="Group 17880" transform="translate(11.394 9.436)">
              <path id="Path_45453" data-name="Path 45453" d="M32.5,26.922a1.863,1.863,0,1,1,.561-.087A1.867,1.867,0,0,1,32.5,26.922Zm0-3.21a1.346,1.346,0,1,0,1.281.94,1.347,1.347,0,0,0-1.281-.94Z" transform="translate(-30.637 -23.192)" fill="#151d21"/>
              <path id="Path_45453_-_Outline" data-name="Path 45453 - Outline" d="M32.5,27.072a2.013,2.013,0,1,1,.606-.094A2.007,2.007,0,0,1,32.5,27.072Zm0-3.729a1.717,1.717,0,1,0,.788.194A1.694,1.694,0,0,0,32.5,23.342Zm0,3.211h0a1.495,1.495,0,1,1,.449-.069A1.491,1.491,0,0,1,32.5,26.553Zm0-2.691a1.2,1.2,0,0,0-1.141,1.556,1.193,1.193,0,0,0,1.142.835h0a1.2,1.2,0,0,0,0-2.391Z" transform="translate(-30.637 -23.192)" fill="#151d21"/>
            </g>
            <g id="Group_17881" data-name="Group 17881" transform="translate(16.322)">
              <path id="Path_45454" data-name="Path 45454" d="M42,8.737a1.867,1.867,0,0,1-1.779-1.3h0A1.862,1.862,0,1,1,42,8.737Zm0-3.21a1.355,1.355,0,0,0-.407.063,1.346,1.346,0,0,0-.877,1.688h0A1.344,1.344,0,1,0,42,5.527Z" transform="translate(-40.135 -5.008)" fill="#151d21"/>
              <path id="Path_45454_-_Outline" data-name="Path 45454 - Outline" d="M42,8.887a2.017,2.017,0,1,1,.606-.094A2.007,2.007,0,0,1,42,8.887Zm0-3.729a1.717,1.717,0,1,0,.788.194A1.707,1.707,0,0,0,42,5.158Zm0,3.211a1.5,1.5,0,0,1,0-2.992,1.5,1.5,0,0,1,.45,2.921A1.5,1.5,0,0,1,42,8.368Zm0-2.692a1.206,1.206,0,0,0-.362.056A1.2,1.2,0,0,0,42,8.068h0a1.2,1.2,0,0,0,.362-.056A1.2,1.2,0,0,0,42,5.677Z" transform="translate(-40.135 -5.008)" fill="#151d21"/>
            </g>
          </g>
        </g>
        <g id="Group_17884" data-name="Group 17884" transform="translate(0 0.511)">
          <path id="Path_45455" data-name="Path 45455" d="M26.667,27.267H1.759a.259.259,0,0,1-.259-.259V6.252a.259.259,0,0,1,.519,0v20.5H26.667a.259.259,0,1,1,0,.519Z" transform="translate(-1.5 -5.992)" fill="#151d21"/>
          <path id="Path_45455_-_Outline" data-name="Path 45455 - Outline" d="M26.667,27.417H1.759a.41.41,0,0,1-.409-.409V6.252a.409.409,0,1,1,.819,0V26.6h24.5a.409.409,0,0,1,0,.819ZM1.759,6.142a.11.11,0,0,0-.109.109V27.008a.11.11,0,0,0,.109.109H26.667a.109.109,0,0,0,0-.219H1.869V6.252A.11.11,0,0,0,1.759,6.142Z" transform="translate(-1.5 -5.992)" fill="#151d21"/>
        </g>
      </g>
    </g>
  </g>
</svg>
