<svg xmlns="http://www.w3.org/2000/svg" width="26" height="26" viewBox="0 0 26 26">
  <g id="Group_17917" data-name="Group 17917" transform="translate(-9107 10522)">
    <rect id="Rectangle_149782" data-name="Rectangle 149782" width="26" height="26" transform="translate(9107 -10522)" fill="#fff" opacity="0"/>
    <g id="Group_17885" data-name="Group 17885" transform="translate(9108 -10519)">
      <g id="Group_17883" data-name="Group 17883" transform="translate(3.42)">
        <g id="Group_17882" data-name="Group 17882" transform="translate(0)">
          <g id="Group_17875" data-name="Group 17875" transform="translate(2.127 7.697)">
            <path id="Path_45448" data-name="Path 45448" d="M13.425,25.458a.237.237,0,0,1-.211-.347l1.949-3.762a.24.24,0,1,1,.4.255l-1.93,3.726A.238.238,0,0,1,13.425,25.458Z" transform="translate(-13.049 -21.079)" fill="#151d21"/>
            <path id="Path_45448_-_Outline" data-name="Path 45448 - Outline" d="M13.412,25.58a.374.374,0,0,1-.333-.549l1.949-3.762a.375.375,0,0,1,.214-.183.366.366,0,0,1,.12-.02.376.376,0,0,1,.307.594l-1.921,3.716a.374.374,0,0,1-.336.2Zm1.95-4.238a.1.1,0,0,0-.032.005.1.1,0,0,0-.059.05l-1.949,3.761a.1.1,0,0,0,.043.135.1.1,0,0,0,.135-.043L15.445,21.5a.1.1,0,0,0,.015-.091.1.1,0,0,0-.1-.064Z" transform="translate(-13.036 -21.066)" fill="#151d21"/>
          </g>
          <g id="Group_17876" data-name="Group 17876" transform="translate(6.062 7.083)">
            <path id="Path_45449" data-name="Path 45449" d="M26.229,22.737a.232.232,0,0,1-.11-.027L21.6,20.362a.237.237,0,1,1,.219-.421l4.519,2.348a.237.237,0,0,1-.11.448Z" transform="translate(-21.337 -19.779)" fill="#151d21"/>
            <path id="Path_45449_-_Outline" data-name="Path 45449 - Outline" d="M26.217,22.864a.371.371,0,0,1-.174-.043l-4.518-2.348a.375.375,0,0,1,.347-.664l4.518,2.348a.374.374,0,0,1-.173.707ZM21.7,20.04a.1.1,0,0,0-.047.189l4.519,2.348a.1.1,0,0,0,.092-.177l-4.519-2.348a.1.1,0,0,0-.046-.012Z" transform="translate(-21.324 -19.766)" fill="#151d21"/>
          </g>
          <g id="Group_17877" data-name="Group 17877" transform="translate(12.557 2.772)">
            <path id="Path_45450" data-name="Path 45450" d="M35.392,17.341a.238.238,0,0,1-.21-.347l3.144-6.038a.237.237,0,1,1,.421.219L35.6,17.213a.237.237,0,0,1-.21.128Z" transform="translate(-35.017 -10.694)" fill="#151d21"/>
            <path id="Path_45450_-_Outline" data-name="Path 45450 - Outline" d="M35.379,17.468a.374.374,0,0,1-.332-.547l3.144-6.038a.374.374,0,0,1,.664.346l-3.144,6.038a.372.372,0,0,1-.332.2Zm3.144-6.514a.1.1,0,0,0-.091.054l-3.144,6.038a.1.1,0,0,0,.042.134.1.1,0,0,0,.134-.042L38.609,11.1a.1.1,0,0,0-.042-.134.1.1,0,0,0-.043-.015Z" transform="translate(-35.005 -10.682)" fill="#151d21"/>
          </g>
          <g id="Group_17878" data-name="Group 17878" transform="translate(0 11.321)">
            <path id="Path_45451" data-name="Path 45451" d="M10.383,32.2a1.708,1.708,0,0,1-1.624-1.189h0A1.7,1.7,0,1,1,10.383,32.2ZM9.212,30.869a1.222,1.222,0,1,0,.078-.94A1.23,1.23,0,0,0,9.212,30.869Z" transform="translate(-8.554 -28.681)" fill="#151d21"/>
            <path id="Path_45451_-_Outline" data-name="Path 45451 - Outline" d="M10.371,32.329a1.848,1.848,0,0,1-.847-.209,1.83,1.83,0,1,1,.847.209Zm0-3.412a1.568,1.568,0,1,0,1.5,1.1,1.568,1.568,0,0,0-1.5-1.1Zm0,2.937a1.372,1.372,0,1,1,.414-.064,1.372,1.372,0,0,1-.414.064Zm0-2.463a1.08,1.08,0,0,0-.328.051,1.093,1.093,0,0,0-.175,2.013,1.077,1.077,0,0,0,.5.124,1.094,1.094,0,0,0,0-2.187Z" transform="translate(-8.542 -28.67)" fill="#151d21"/>
          </g>
          <g id="Group_17879" data-name="Group 17879" transform="translate(3.287 4.931)">
            <path id="Path_45452" data-name="Path 45452" d="M17.341,18.8a1.708,1.708,0,0,1-1.628-1.189h0A1.7,1.7,0,1,1,17.341,18.8Zm0-2.937a1.232,1.232,0,0,0-1.175,1.6h0a1.23,1.23,0,1,0,1.175-1.6Z" transform="translate(-15.496 -15.248)" fill="#151d21"/>
            <path id="Path_45452_-_Outline" data-name="Path 45452 - Outline" d="M17.328,18.922a1.843,1.843,0,1,1,.554-.086A1.843,1.843,0,0,1,17.328,18.922Zm0-3.412a1.57,1.57,0,1,0,.722.177A1.57,1.57,0,0,0,17.328,15.51Zm0,2.937h0a1.371,1.371,0,1,1,1.1-.56,1.372,1.372,0,0,1-1.1.56Zm0-2.463a1.095,1.095,0,1,0,.5.124,1.079,1.079,0,0,0-.5-.123Z" transform="translate(-15.483 -15.235)" fill="#151d21"/>
          </g>
          <g id="Group_17880" data-name="Group 17880" transform="translate(10.41 8.641)">
            <path id="Path_45453" data-name="Path 45453" d="M32.341,26.6a1.7,1.7,0,1,1,.513-.08,1.7,1.7,0,0,1-.513.08Zm0-2.937a1.231,1.231,0,1,0,1.172.86,1.231,1.231,0,0,0-1.172-.86Z" transform="translate(-30.498 -23.059)" fill="#151d21"/>
            <path id="Path_45453_-_Outline" data-name="Path 45453 - Outline" d="M32.328,26.729a1.842,1.842,0,1,1,.554-.086A1.842,1.842,0,0,1,32.328,26.729Zm0-3.412a1.571,1.571,0,1,0,.721.177,1.55,1.55,0,0,0-.721-.178Zm0,2.938h0a1.368,1.368,0,1,1,.411-.063,1.368,1.368,0,0,1-.411.063Zm0-2.462a1.094,1.094,0,1,0,0,2.187h0a1.1,1.1,0,0,0,0-2.187Z" transform="translate(-30.485 -23.046)" fill="#151d21"/>
          </g>
          <g id="Group_17881" data-name="Group 17881" transform="translate(14.916)">
            <path id="Path_45454" data-name="Path 45454" d="M41.841,8.42A1.708,1.708,0,0,1,40.214,7.23h0A1.7,1.7,0,1,1,41.841,8.42Zm0-2.937a1.232,1.232,0,0,0-1.175,1.6h0a1.23,1.23,0,1,0,1.175-1.6Z" transform="translate(-39.993 -4.866)" fill="#151d21"/>
            <path id="Path_45454_-_Outline" data-name="Path 45454 - Outline" d="M41.828,8.544a1.845,1.845,0,1,1,.554-.086A1.845,1.845,0,0,1,41.828,8.544Zm0-3.412a1.571,1.571,0,1,0,.721.177,1.571,1.571,0,0,0-.721-.177Zm0,2.938A1.35,1.35,0,1,1,42.24,8a1.372,1.372,0,0,1-.412.065Zm0-2.463a1.094,1.094,0,0,0,0,2.187h0a1.094,1.094,0,0,0,0-2.187Z" transform="translate(-39.98 -4.853)" fill="#151d21"/>
          </g>
        </g>
      </g>
      <g id="Group_17884" data-name="Group 17884" transform="translate(0 0.473)">
        <path id="Path_45455" data-name="Path 45455" d="M24.524,25.456H1.737a.237.237,0,0,1-.237-.237V6.23a.237.237,0,1,1,.475,0V24.985h22.55a.237.237,0,1,1,0,.475Z" transform="translate(-1.363 -5.855)" fill="#151d21"/>
        <path id="Path_45455_-_Outline" data-name="Path 45455 - Outline" d="M24.512,25.58H1.724a.375.375,0,0,1-.374-.374V6.217a.375.375,0,0,1,.749,0V24.833H24.513a.375.375,0,1,1,0,.749ZM1.724,6.117a.1.1,0,0,0-.1.1v18.99a.1.1,0,0,0,.1.1H24.512a.1.1,0,1,0,0-.2H1.825V6.217a.1.1,0,0,0-.1-.1Z" transform="translate(-1.35 -5.843)" fill="#151d21"/>
      </g>
    </g>
  </g>
</svg>
