<svg xmlns="http://www.w3.org/2000/svg" width="46" height="46" viewBox="0 0 46 46">
  <g id="Group_17841" data-name="Group 17841" transform="translate(-6563 1776)">
    <rect id="Rectangle_149745" data-name="Rectangle 149745" width="46" height="46" transform="translate(6563 -1776)" fill="#fff" opacity="0"/>
    <g id="noun_Log_Out_688273" data-name="noun_Log Out_688273" transform="translate(6611.227 -1730.154) rotate(180)">
      <g id="Group_17827" data-name="Group 17827" transform="translate(13 9)">
        <path id="Path_45444" data-name="Path 45444" d="M45.327,961.362h13.1a.34.34,0,0,1,.327.327v26.191a.34.34,0,0,1-.327.327h-13.1a.34.34,0,0,1-.327-.327v-4.57a.327.327,0,1,1,.655,0v4.242H58.1V962.017H45.655v4.242a.327.327,0,1,1-.655,0V961.69A.327.327,0,0,1,45.327,961.362Z" transform="translate(-34.523 -961.362)"/>
        <path id="Path_45444_-_Outline" data-name="Path 45444 - Outline" d="M45.326,961.212h13.1a.49.49,0,0,1,.477.477v26.191a.49.49,0,0,1-.477.477h-13.1a.49.49,0,0,1-.477-.477v-4.57a.474.474,0,0,1,.14-.335.477.477,0,0,1,.815.337v4.09H57.945V962.167H45.8v4.092a.477.477,0,0,1-.955,0V961.69a.481.481,0,0,1,.475-.477Zm13.1,26.846a.192.192,0,0,0,.177-.177V961.69a.192.192,0,0,0-.177-.177H45.329a.178.178,0,0,0-.179.182v4.565a.173.173,0,0,0,.3.125.175.175,0,0,0,.054-.122v-4.395H58.245V987.7H45.5v-4.392a.173.173,0,0,0-.3-.125.175.175,0,0,0-.054.122v4.572a.192.192,0,0,0,.177.177Z" transform="translate(-34.523 -961.362)" fill="#151d21"/>
        <path id="Path_45445" data-name="Path 45445" d="M13.082,990.029l5.238-5.566a.336.336,0,0,1,.466-.015.344.344,0,0,1,.015.466l-4.716,5.013H32.316a.327.327,0,0,1,0,.655H14.084l4.716,5.013a.342.342,0,0,1-.015.466.333.333,0,0,1-.466-.015l-5.238-5.566A.352.352,0,0,1,13.082,990.029Z" transform="translate(-13 -976.832)"/>
        <path id="Path_45445_-_Outline" data-name="Path 45445 - Outline" d="M18.563,984.212a.467.467,0,0,1,.327.128.5.5,0,0,1,.021.676l-4.479,4.761H32.316a.477.477,0,0,1,0,.955H14.431l4.479,4.76a.492.492,0,0,1-.022.678.473.473,0,0,1-.325.128.493.493,0,0,1-.349-.146l0,0-5.245-5.574a.5.5,0,0,1,0-.641l.006-.006,5.238-5.566A.488.488,0,0,1,18.563,984.212Zm13.753,6.22a.177.177,0,1,0,0-.355H13.737l4.954-5.266a.2.2,0,0,0-.01-.255.171.171,0,0,0-.119-.044.186.186,0,0,0-.135.055l-5.234,5.561a.2.2,0,0,0,0,.253l5.232,5.559a.187.187,0,0,0,.256.011.193.193,0,0,0,.008-.254l-4.954-5.266Z" transform="translate(-13 -976.832)" fill="#151d21"/>
      </g>
    </g>
  </g>
</svg>
