<svg xmlns="http://www.w3.org/2000/svg" width="12.575" height="12.575" viewBox="0 0 12.575 12.575">
  <g id="Page-1" opacity="0.85">
    <g id="Icon-Set">
      <path id="search" d="M263.284,1148.611a4.405,4.405,0,1,0-4.477-4.4,4.439,4.439,0,0,0,4.477,4.4Zm-7.165,2.28,3.246-3.2a5.129,5.129,0,0,1-1.372-3.486,5.292,5.292,0,1,1,5.291,5.2,5.315,5.315,0,0,1-3.33-1.163l-3.259,3.207a.41.41,0,0,1-.575,0,.4.4,0,0,1,0-.566Z" transform="translate(-256 -1139)" fill="#fff" fill-rule="evenodd"/>
    </g>
  </g>
</svg>