<svg xmlns="http://www.w3.org/2000/svg" width="46" height="46" viewBox="0 0 46 46">
  <g id="Group_17842" data-name="Group 17842" transform="translate(-6503 1776)">
    <rect id="Rectangle_149746" data-name="Rectangle 149746" width="46" height="46" transform="translate(6503 -1776)" fill="#fff" opacity="0"/>
    <g id="noun_Map_2568335" transform="translate(6512 -1767)">
      <path id="Path_45351" data-name="Path 45351" d="M31.91,13.024a4.053,4.053,0,1,0-4.051,4.051A4.057,4.057,0,0,0,31.91,13.024Zm-7.348,0a3.295,3.295,0,1,1,3.3,3.293A3.3,3.3,0,0,1,24.563,13.024Z" transform="translate(-14.156 -6.329)" fill="#151d21"/>
      <path id="Path_45352" data-name="Path 45352" d="M6.21,17.9l-4.151,10.8a.843.843,0,0,0,.785,1.152H29a.843.843,0,0,0,.787-1.149l-4.153-10.8a.839.839,0,0,0-.785-.535H20.378c1.549-2.9,2.92-5.979,2.92-7.772a7.585,7.585,0,0,0-15.17,0c0,1.793,1.371,4.868,2.92,7.772H7A.84.84,0,0,0,6.21,17.9Zm9.5-15.052a6.749,6.749,0,0,1,6.741,6.741c0,3.288-5.309,11.773-6.741,14-1.432-2.229-6.741-10.713-6.741-14A6.749,6.749,0,0,1,15.712,2.844ZM15.36,24.6a.422.422,0,0,0,.7,0c.151-.229,2.045-3.1,3.856-6.394l4.928,0L29,29,2.846,29,7,18.2H11.5C13.316,21.492,15.209,24.367,15.36,24.6Z" transform="translate(-2.001 -2)" fill="#151d21"/>
    </g>
  </g>
</svg>
