<svg xmlns="http://www.w3.org/2000/svg" width="15.992" height="20.479" viewBox="0 0 15.992 20.479">
  <g id="noun_update_3752628" transform="translate(0.1 0.1)">
    <g id="Group_17490" data-name="Group 17490" transform="translate(0 0)">
      <g id="Group_17483" data-name="Group 17483" transform="translate(0 3.604)">
        <g id="Group_17482" data-name="Group 17482">
          <path id="Path_45353" data-name="Path 45353" d="M189.955,242.678a7.894,7.894,0,0,0,4.592,14.379c.168,0,.337-.01.5-.022a.364.364,0,0,0,0-.728,7.711,7.711,0,0,1-.99.012q-.242-.013-.484-.041l-.071-.009h.008l-.124-.018c-.083-.013-.166-.027-.248-.043a7.612,7.612,0,0,1-.956-.248q-.231-.076-.457-.167l-.067-.027,0,0-.116-.051q-.115-.052-.229-.107a7.48,7.48,0,0,1-.866-.5c-.137-.092-.272-.187-.4-.288.042.033-.046-.037-.057-.046l-.086-.07q-.107-.089-.211-.181a7.506,7.506,0,0,1-.72-.739c-.118-.139-.2-.238-.287-.362s-.192-.273-.282-.413a7.575,7.575,0,0,1-.444-.8q-.051-.106-.1-.214c-.008-.018-.039-.092-.016-.036-.017-.041-.034-.082-.05-.124q-.083-.208-.152-.421a7.478,7.478,0,0,1-.229-.873c-.015-.075-.029-.149-.041-.225-.005-.032-.011-.064-.016-.1s-.02-.14-.01-.064c-.019-.145-.034-.29-.045-.436a7.593,7.593,0,0,1-.013-.888q.01-.226.034-.45c0-.032.007-.064.011-.1s.015-.114.01-.08.007-.049.009-.063c.006-.043.013-.085.02-.127a7.566,7.566,0,0,1,.2-.863q.063-.217.139-.43.035-.1.073-.2l.036-.09.018-.045c.039-.1-.017.038.007-.018a7.528,7.528,0,0,1,.9-1.55l.042-.055.023-.028.031-.039c.049-.06.1-.12.148-.179q.152-.177.315-.345a7.546,7.546,0,0,1,.689-.626l.081-.064-.006,0,.055-.041c.065-.049.13-.1.2-.142a.374.374,0,0,0,.131-.5.368.368,0,0,0-.5-.131Z" transform="translate(-186.563 -242.626)" fill="#151d21"/>
          <path id="Path_45353_-_Outline" data-name="Path 45353 - Outline" d="M190.126,242.526a.493.493,0,0,1,.414.232.472.472,0,0,1-.159.631c-.076.054-.138.1-.194.14l-.043.033-.011.009-.073.057a7.477,7.477,0,0,0-.68.618c-.1.106-.208.22-.311.34-.048.056-.1.115-.146.176l-.03.038-.032.041-.03.04a7.433,7.433,0,0,0-.885,1.53l-.025.06-.035.089q-.037.1-.072.194c-.05.139-.1.282-.137.424a7.485,7.485,0,0,0-.195.852c-.007.042-.014.084-.02.126l-.013.09-.006.05v.009c0,.029-.007.057-.01.086-.015.146-.027.3-.033.444a7.523,7.523,0,0,0,.012.877c.01.14.024.277.041.407h0v.009c0,.008,0,.016,0,.023l.008.053c0,.032.01.064.015.095.013.076.026.149.041.223a7.405,7.405,0,0,0,.226.861c.046.14.1.28.15.415l.042.1h0l0,0,.005.012.016.037c.032.073.064.144.1.211a7.5,7.5,0,0,0,.438.793c.089.141.183.278.278.408s.167.221.282.357a7.43,7.43,0,0,0,.71.729c.069.061.139.121.208.179l.084.069.024.019.032.026h0l.009.007h0c.117.091.244.181.387.277a7.406,7.406,0,0,0,.854.492c.075.037.151.072.226.106l.108.047h0l.007,0,.059.024c.148.06.3.115.451.165a7.531,7.531,0,0,0,.944.245c.079.015.162.029.245.042l.122.018.063.008c.158.018.318.032.477.041a7.632,7.632,0,0,0,.977-.012.464.464,0,1,1,.015.927c-.174.013-.346.021-.511.023h-.085A7.994,7.994,0,0,1,189.9,242.6.4.4,0,0,1,190.126,242.526Zm-.094.869.036-.027c.057-.042.12-.088.2-.143a.275.275,0,0,0,.1-.366.3.3,0,0,0-.241-.133.193.193,0,0,0-.114.034,7.794,7.794,0,0,0,4.534,14.2c.16,0,.328-.009.5-.022a.264.264,0,0,0,.015-.528,7.849,7.849,0,0,1-1,.012c-.162-.009-.327-.023-.49-.042l-.04,0h-.016l-.016,0h0l-.119-.018c-.085-.014-.169-.028-.251-.043a7.74,7.74,0,0,1-.969-.252c-.155-.051-.311-.108-.463-.17l-.042-.017-.007,0h0l-.016-.007-.118-.052c-.077-.034-.155-.071-.232-.109a7.607,7.607,0,0,1-.878-.505c-.151-.1-.285-.2-.407-.292h0l-.034-.027-.025-.02-.087-.071c-.071-.059-.143-.121-.213-.183a7.632,7.632,0,0,1-.73-.749c-.118-.14-.2-.239-.291-.368s-.194-.274-.285-.419a7.7,7.7,0,0,1-.45-.814c-.033-.069-.066-.142-.1-.217l-.016-.037h0q-.026-.062-.05-.124c-.055-.139-.107-.282-.154-.426a7.609,7.609,0,0,1-.232-.885c-.015-.076-.029-.151-.042-.228-.006-.034-.011-.066-.016-.1l-.008-.055,0-.011h0l0-.022v0l-.005-.041h0c-.015-.121-.027-.246-.037-.375a7.724,7.724,0,0,1-.013-.9c.007-.153.018-.306.034-.456,0-.029.006-.059.01-.088v-.009l.006-.052,0-.015c0-.006,0-.011,0-.015v-.008l.008-.056c.006-.043.013-.086.02-.129a7.691,7.691,0,0,1,.2-.875c.043-.146.09-.293.141-.436q.036-.1.074-.2l.036-.092.018-.045a.18.18,0,0,1,.022-.051,7.63,7.63,0,0,1,.9-1.539l.032-.042,0,0h0l.006-.007.007-.008.016-.021.032-.04c.05-.062.1-.123.15-.181.106-.123.213-.241.319-.35a7.671,7.671,0,0,1,.7-.634l.082-.065.015-.012Z" transform="translate(-186.563 -242.626)" fill="#151d21"/>
        </g>
      </g>
      <g id="Group_17485" data-name="Group 17485" transform="translate(6.892 2.243)">
        <g id="Group_17484" data-name="Group 17484" transform="translate(0 0)">
          <path id="Path_45354" data-name="Path 45354" d="M471,187.307a7.7,7.7,0,0,1,.987-.018q.25.012.5.04l.107.013c.061.008-.051-.008.01,0l.053.008q.124.019.247.041a7.628,7.628,0,0,1,.972.246q.23.075.456.165l.116.048c-.05-.021.031.014.045.02q.124.054.245.113a7.162,7.162,0,0,1,2.92,2.574,7.54,7.54,0,0,1,.457.816q.047.1.092.2c.016.036.032.071.047.107-.025-.059.019.046.027.067q.083.208.154.421a7.448,7.448,0,0,1,.234.872c.03.149.054.3.077.45-.011-.071,0,.025.006.048l.011.1c.009.081.016.161.022.242a7.564,7.564,0,0,1,.015.888q-.009.218-.031.434-.011.112-.026.224c.008-.065,0,.005,0,.031-.006.042-.013.085-.02.127a7.576,7.576,0,0,1-.2.864q-.06.209-.133.415-.037.107-.078.212l-.035.09c-.009.022-.052.125-.025.063a7.506,7.506,0,0,1-.893,1.551l-.04.053-.012.016-.012.015-.041.052q-.073.09-.148.179-.147.171-.3.333a7.529,7.529,0,0,1-.687.628l-.094.075.006,0-.055.041c-.065.049-.13.1-.2.142a.373.373,0,0,0-.13.5.367.367,0,0,0,.5.131,7.894,7.894,0,0,0-4.64-14.378c-.168,0-.336.012-.5.025a.364.364,0,0,0,0,.728Z" transform="translate(-470.636 -186.552)" fill="#151d21"/>
          <path id="Path_45354_-_Outline" data-name="Path 45354 - Outline" d="M471.637,186.452a7.994,7.994,0,0,1,4.563,14.561.394.394,0,0,1-.229.07.491.491,0,0,1-.413-.232.472.472,0,0,1,.159-.63c.078-.055.138-.1.194-.14l.04-.03.014-.011.086-.068a7.459,7.459,0,0,0,.678-.62c.1-.107.2-.217.3-.328.048-.055.1-.115.146-.176l.041-.052.011-.015h0l.013-.017.037-.049a7.409,7.409,0,0,0,.874-1.514h0l0-.007.016-.039.048-.12c.029-.074.054-.142.077-.209.047-.134.091-.271.131-.41a7.508,7.508,0,0,0,.193-.852c.007-.042.013-.084.02-.126l.006-.04v-.013h0q.013-.1.023-.2c.014-.143.025-.287.031-.428a7.492,7.492,0,0,0-.014-.877c-.007-.087-.014-.165-.022-.239l-.011-.1-.006-.044c0-.008,0-.015,0-.023h0c-.021-.135-.044-.278-.073-.422a7.369,7.369,0,0,0-.23-.861c-.046-.139-.1-.279-.152-.415l-.02-.048-.011-.028,0,0h0l-.04-.091q-.044-.1-.091-.2a7.464,7.464,0,0,0-.451-.805,7.088,7.088,0,0,0-2.879-2.538c-.085-.041-.165-.078-.242-.112l-.015-.006-.03-.013-.012,0h0l-.1-.042c-.148-.059-.3-.113-.45-.162a7.555,7.555,0,0,0-.959-.243c-.083-.015-.165-.029-.244-.041l-.061-.009-.1-.013c-.163-.019-.329-.032-.493-.039a7.64,7.64,0,0,0-.974.018.464.464,0,0,1-.016-.928c.179-.014.346-.023.509-.026Zm4.335,14.432a.193.193,0,0,0,.114-.034,7.794,7.794,0,0,0-4.58-14.2c-.16,0-.322.011-.5.025a.274.274,0,0,0-.272.26c.006.133.113.281.256.269a7.815,7.815,0,0,1,1-.019c.169.008.34.022.507.041l.09.011a.18.18,0,0,1,.048.007l.035.005c.081.012.166.026.25.042a7.753,7.753,0,0,1,.985.249c.155.05.31.106.462.167l.117.048h0l.031.013.016.007c.08.035.162.073.249.115a7.288,7.288,0,0,1,2.96,2.609,7.669,7.669,0,0,1,.463.827q.048.1.093.2c.016.035.031.071.047.107v0h0l.008.02.021.05c.056.139.108.283.156.426a7.578,7.578,0,0,1,.237.884c.032.157.056.311.078.455h0v0c0,.017.005.038.006.047l.011.1c.008.076.016.156.023.245a7.694,7.694,0,0,1,.015.9c-.006.145-.017.293-.031.44-.007.073-.016.149-.026.226h0l0,.033c-.006.043-.013.086-.02.129a7.706,7.706,0,0,1-.2.875c-.041.142-.086.283-.134.42-.024.069-.05.139-.079.215l-.05.124-.013.031h0l0,.005v0a7.606,7.606,0,0,1-.9,1.565l-.04.053-.006.007h0l0,0-.005.007-.006.007h0l-.046.058c-.051.063-.1.124-.15.181-.1.114-.2.228-.307.337a7.66,7.66,0,0,1-.7.636l-.1.076-.008.006,0,0,0,0h0l-.006,0-.032.024c-.057.042-.118.087-.2.143a.275.275,0,0,0-.1.366A.293.293,0,0,0,475.972,200.884Z" transform="translate(-470.636 -186.552)" fill="#151d21"/>
        </g>
      </g>
      <g id="Group_17487" data-name="Group 17487" transform="translate(6.879 0)">
        <g id="Group_17486" data-name="Group 17486">
          <path id="Path_45355" data-name="Path 45355" d="M472.975,98.759l-2-2-.282-.282V97l2.008-2.008.281-.281a.364.364,0,0,0-.515-.515L470.464,96.2l-.281.281a.369.369,0,0,0,0,.515l2,2,.282.282a.364.364,0,0,0,.515-.515Z" transform="translate(-470.079 -94.087)" fill="#151d21"/>
          <path id="Path_45355_-_Outline" data-name="Path 45355 - Outline" d="M472.718,99.477a.46.46,0,0,1-.328-.134l-2.277-2.278a.469.469,0,0,1,0-.656l2.289-2.289a.469.469,0,0,1,.656,0,.47.47,0,0,1,0,.656L471.1,96.738l1.95,1.949a.462.462,0,0,1-.328.79Zm.011-5.29a.261.261,0,0,0-.186.075l-2.289,2.289a.269.269,0,0,0,0,.373l2.277,2.278a.264.264,0,0,0,.373-.373l-1.949-1.949h0l-.357.357v-1l.357.358h0l1.961-1.961a.271.271,0,0,0,0-.373A.261.261,0,0,0,472.729,94.187Z" transform="translate(-470.079 -94.087)" fill="#151d21"/>
        </g>
      </g>
      <g id="Group_17489" data-name="Group 17489" transform="translate(5.901 15.001)">
        <g id="Group_17488" data-name="Group 17488">
          <path id="Path_45356" data-name="Path 45356" d="M429.862,712.971l2,2,.282.282v-.515l-2,2-.282.282a.364.364,0,0,0,.515.515l2-2,.282-.282a.369.369,0,0,0,0-.515l-2-2-.282-.282a.364.364,0,0,0-.515.515Z" transform="translate(-429.757 -712.352)" fill="#151d21"/>
          <path id="Path_45356_-_Outline" data-name="Path 45356 - Outline" d="M430.119,712.252a.46.46,0,0,1,.328.134l2.277,2.277a.469.469,0,0,1,0,.656l-2.277,2.278a.469.469,0,0,1-.656,0,.47.47,0,0,1,0-.656l1.95-1.949-1.95-1.949a.47.47,0,0,1,0-.656A.459.459,0,0,1,430.119,712.252Zm0,5.279a.261.261,0,0,0,.186-.075l2.278-2.278a.269.269,0,0,0,0-.373l-2.277-2.278a.269.269,0,0,0-.373,0,.268.268,0,0,0,0,.373l1.95,1.949h0l.357-.357v1l-.357-.357h0l-1.949,1.949a.271.271,0,0,0,0,.373A.262.262,0,0,0,430.12,717.531Z" transform="translate(-429.757 -712.352)" fill="#151d21"/>
        </g>
      </g>
    </g>
  </g>
</svg>
