<svg xmlns="http://www.w3.org/2000/svg" width="46" height="46" viewBox="0 0 46 46">
  <g id="Group_17843" data-name="Group 17843" transform="translate(-6445 1776)">
    <rect id="Rectangle_149747" data-name="Rectangle 149747" width="46" height="46" transform="translate(6445 -1776)" fill="#fff" opacity="0"/>
    <g id="noun_update_3752628" transform="translate(6456 -1768)">
      <g id="Group_17490" data-name="Group 17490" transform="translate(0 0)">
        <g id="Group_17483" data-name="Group 17483" transform="translate(0 5.283)">
          <g id="Group_17482" data-name="Group 17482">
            <path id="Path_45353" data-name="Path 45353" d="M191.536,242.7a11.572,11.572,0,0,0,6.732,21.079c.247,0,.494-.014.74-.033a.534.534,0,1,0,0-1.067,11.3,11.3,0,0,1-1.452.018q-.355-.019-.709-.061l-.1-.013c.011,0,.075.01.011,0l-.182-.027c-.121-.019-.243-.04-.363-.063a11.149,11.149,0,0,1-1.4-.364q-.338-.112-.669-.245l-.1-.04.006,0-.17-.074q-.169-.076-.336-.158a10.955,10.955,0,0,1-1.269-.731c-.2-.134-.4-.275-.59-.423.062.048-.067-.054-.083-.067l-.126-.1q-.157-.13-.309-.266a10.994,10.994,0,0,1-1.056-1.083c-.173-.2-.287-.349-.42-.531q-.217-.3-.413-.606a11.087,11.087,0,0,1-.651-1.177q-.074-.155-.143-.313c-.012-.027-.057-.134-.023-.053q-.038-.09-.074-.181-.121-.305-.223-.617a10.96,10.96,0,0,1-.336-1.28q-.033-.164-.06-.329c-.008-.047-.016-.094-.023-.142s-.03-.206-.015-.094c-.028-.212-.05-.425-.065-.639a11.125,11.125,0,0,1-.018-1.3q.015-.331.049-.66c0-.047.01-.094.016-.141,0-.031.021-.167.014-.117s.011-.072.014-.093c.009-.062.019-.124.03-.187a11.093,11.093,0,0,1,.289-1.266q.092-.318.2-.63.052-.145.107-.288l.052-.132.027-.066c.057-.141-.024.055.011-.026a11.036,11.036,0,0,1,1.314-2.272l.061-.08c-.038.049.025-.031.033-.041l.046-.057q.107-.132.217-.262.223-.26.462-.506a11.061,11.061,0,0,1,1.01-.918l.118-.094-.008.006.081-.061c.095-.071.191-.14.288-.208a.548.548,0,0,0,.191-.73.54.54,0,0,0-.731-.191Z" transform="translate(-186.563 -242.626)" fill="#151d21"/>
          </g>
        </g>
        <g id="Group_17485" data-name="Group 17485" transform="translate(10.104 3.289)">
          <g id="Group_17484" data-name="Group 17484" transform="translate(0 0)">
            <path id="Path_45354" data-name="Path 45354" d="M471.17,187.659a11.3,11.3,0,0,1,1.447-.027q.367.017.733.059l.156.019c.089.011-.075-.011.014,0l.078.011q.181.027.362.061a11.173,11.173,0,0,1,1.424.36q.338.11.668.241l.171.07c-.073-.03.046.02.066.029q.182.079.36.166a10.5,10.5,0,0,1,4.28,3.773,11.057,11.057,0,0,1,.67,1.2q.069.144.134.29c.024.052.046.1.069.157-.037-.086.027.067.04.1q.122.3.226.617a10.947,10.947,0,0,1,.342,1.279c.044.219.08.439.113.659-.016-.1,0,.037.009.071s.011.095.016.142c.013.118.023.237.033.355a11.053,11.053,0,0,1,.021,1.3q-.013.319-.046.636-.016.164-.038.329c.012-.1,0,.008-.007.045-.009.062-.019.124-.029.187a11.083,11.083,0,0,1-.286,1.266q-.089.307-.195.608-.055.156-.115.311l-.052.132c-.013.032-.076.184-.037.092a11,11,0,0,1-1.309,2.274l-.058.077-.017.023-.018.022-.06.076q-.107.132-.217.262-.215.251-.445.488a11.024,11.024,0,0,1-1.007.92c-.045.037-.092.073-.138.109l.008-.006-.081.061c-.1.071-.191.14-.288.208a.547.547,0,0,0-.191.73.537.537,0,0,0,.73.191,11.572,11.572,0,0,0-6.8-21.078c-.246,0-.492.017-.737.037a.534.534,0,0,0,0,1.068Z" transform="translate(-470.636 -186.552)" fill="#151d21"/>
          </g>
        </g>
        <g id="Group_17487" data-name="Group 17487" transform="translate(10.084 0)">
          <g id="Group_17486" data-name="Group 17486">
            <path id="Path_45355" data-name="Path 45355" d="M474.325,100.935,471.4,98.01l-.414-.414v.754l2.944-2.944.412-.412a.533.533,0,1,0-.754-.754l-2.944,2.944-.412.412a.541.541,0,0,0,0,.754l2.925,2.925.414.414a.533.533,0,0,0,.754-.754Z" transform="translate(-470.079 -94.087)" fill="#151d21"/>
          </g>
        </g>
        <g id="Group_17489" data-name="Group 17489" transform="translate(8.65 21.99)">
          <g id="Group_17488" data-name="Group 17488">
            <path id="Path_45356" data-name="Path 45356" d="M429.911,713.26l2.925,2.925.414.414v-.754l-2.925,2.925-.414.414a.533.533,0,0,0,.754.754l2.925-2.925L434,716.6a.541.541,0,0,0,0-.754l-2.925-2.925-.414-.414a.533.533,0,0,0-.754.754Z" transform="translate(-429.758 -712.352)" fill="#151d21"/>
          </g>
        </g>
      </g>
    </g>
  </g>
</svg>
