<svg id="noun_Info_2290192" xmlns="http://www.w3.org/2000/svg" width="30.288" height="30.288" viewBox="0 0 30.288 30.288">
  <g id="Group_17695" data-name="Group 17695" transform="translate(3.668 3.668)">
    <path id="Path_45404" data-name="Path 45404" d="M23.78,12.3a11.477,11.477,0,1,0-3.361,8.115A11.441,11.441,0,0,0,23.78,12.3Zm-1.42,0a10.057,10.057,0,1,0-2.946,7.111A10.021,10.021,0,0,0,22.36,12.3Z" transform="translate(-0.827 -0.827)" fill="#f06d0c" fill-rule="evenodd"/>
    <g id="Group_17694" data-name="Group 17694" transform="translate(8.5 4.701)">
      <path id="Path_45405" data-name="Path 45405" d="M7.356,4.49V9.461a3.7,3.7,0,0,0,.677-.571.37.37,0,0,1,.659.278h0A4.027,4.027,0,0,1,7.558,11.19a2.749,2.749,0,0,1-1.839.925,1.641,1.641,0,0,1-1.637-1.637V5.507a3.7,3.7,0,0,0-.677.571A.37.37,0,0,1,2.746,5.8h0A4.027,4.027,0,0,1,3.88,3.778a2.749,2.749,0,0,1,1.839-.925A1.641,1.641,0,0,1,7.356,4.49Z" transform="translate(-2.742 1.437)" fill="#f06d0c" fill-rule="evenodd"/>
      <path id="Path_45406" data-name="Path 45406" d="M4.66,1.886a1.732,1.732,0,1,1-1.225.507A1.726,1.726,0,0,1,4.66,1.886Z" transform="translate(-2.104 -1.886)" fill="#f06d0c" fill-rule="evenodd"/>
    </g>
  </g>
  <rect id="Rectangle_149664" data-name="Rectangle 149664" width="30.288" height="30.288" fill="none"/>
</svg>
