<svg xmlns="http://www.w3.org/2000/svg" width="46" height="46" viewBox="0 0 46 46">
  <g id="Group_17844" data-name="Group 17844" transform="translate(-6382 1776)">
    <rect id="Rectangle_149748" data-name="Rectangle 149748" width="46" height="46" transform="translate(6382 -1776)" fill="#fff" opacity="0"/>
    <g id="Group_17840" data-name="Group 17840" transform="translate(6392 -1766)">
      <g id="noun_Magnifying_Glass_236675" data-name="noun_Magnifying Glass_236675" transform="translate(0 0)">
        <g id="Group_16668" data-name="Group 16668" transform="translate(0)">
          <path id="Path_45021" data-name="Path 45021" d="M35.05,32.687a9.635,9.635,0,1,0-7.181,3.25,9.357,9.357,0,0,0,6.419-2.487l9.749,9.789a.515.515,0,0,0,.4.16.575.575,0,0,0,.4-.16.558.558,0,0,0,0-.762ZM19.283,26.268a8.585,8.585,0,1,1,17.171,0,8.429,8.429,0,0,1-2.447,5.978.14.14,0,0,0-.08.04c-.04.04-.04.04-.04.08a8.6,8.6,0,0,1-14.6-6.1Z" transform="translate(-18.2 -16.6)" fill="#151d21"/>
        </g>
      </g>
    </g>
  </g>
</svg>
