<svg xmlns="http://www.w3.org/2000/svg" width="18.763" height="19.61" viewBox="0 0 18.763 19.61">
  <g id="noun_Inbox_164209" transform="translate(0.15 0.15)">
    <path id="Path_45458" data-name="Path 45458" d="M18.343,11.771,16.16,8.652V6.6a1.44,1.44,0,0,0-.541-1.124C15.581,5.44,10.475.3,10.422.289A1.432,1.432,0,0,0,9.558,0H3.337A1.036,1.036,0,0,0,2.3,1.035V8.652L.119,11.771A.709.709,0,0,0,0,12.139v6.119a1.036,1.036,0,0,0,1.035,1.035l16.394.017a1.036,1.036,0,0,0,1.035-1.035V12.156A.725.725,0,0,0,18.343,11.771Zm-.358.251a.189.189,0,0,1-.155.3H16.16v-2.9ZM10.961,1.114l4.066,4.08a1.444,1.444,0,0,0-.31-.034H11.6a.6.6,0,0,1-.6-.6V1.443A1.452,1.452,0,0,0,10.961,1.114ZM3.337.438H9.558a1,1,0,0,1,1.005,1.005v3.12A1.036,1.036,0,0,0,11.6,5.6h3.12A1.006,1.006,0,0,1,15.723,6.6v5.716H13.17a.219.219,0,0,0-.219.219v1.493a1.1,1.1,0,0,1-1.094,1.094H6.606a1.1,1.1,0,0,1-1.094-1.094V12.538a.219.219,0,0,0-.219-.219H2.74V1.035A.6.6,0,0,1,3.337.438ZM.478,12.021,2.3,9.415v2.9H.633A.189.189,0,0,1,.478,12.021Zm16.95,6.85L1.035,18.854a.6.6,0,0,1-.6-.6V12.723a.627.627,0,0,0,.2.034H5.074v1.274a1.534,1.534,0,0,0,1.532,1.532h5.252a1.534,1.534,0,0,0,1.532-1.532V12.757H17.83a.629.629,0,0,0,.2-.034v5.552A.6.6,0,0,1,17.428,18.872Z"/>
    <path id="Path_45458_-_Outline" data-name="Path 45458 - Outline" d="M17.428,19.46h0L1.034,19.442A1.186,1.186,0,0,1-.15,18.258V12.139A.862.862,0,0,1,0,11.685l2.156-3.08V1.035A1.186,1.186,0,0,1,3.337-.15H9.558a1.577,1.577,0,0,1,.954.319l0,0c.117.09.515.484,2.359,2.332q.818.819,2.781,2.793l.07.07A1.586,1.586,0,0,1,16.31,6.6v2l2.156,3.08a.877.877,0,0,1,.147.471v6.119A1.186,1.186,0,0,1,17.428,19.46ZM3.337.15a.886.886,0,0,0-.885.885V8.7L.242,11.857a.562.562,0,0,0-.092.282v6.119a.886.886,0,0,0,.885.885l16.394.017a.886.886,0,0,0,.885-.885V12.156a.573.573,0,0,0-.092-.3L16.01,8.7V6.6A1.288,1.288,0,0,0,15.525,5.6l-.012-.011-.076-.076-.089-.09L15,5.341a1.3,1.3,0,0,0-.278-.031H11.6a.748.748,0,0,1-.747-.747V1.443a1.306,1.306,0,0,0-.035-.295L10.734.8c-.223-.221-.358-.351-.4-.384L10.332.409A1.279,1.279,0,0,0,9.558.15ZM11.15,1.516V4.563a.448.448,0,0,0,.447.447h3.035Zm6.278,17.506L1.035,19a.748.748,0,0,1-.747-.747V12.516l.2.064a.479.479,0,0,0,.149.027H5.224v1.424a1.383,1.383,0,0,0,1.382,1.382h5.252a1.383,1.383,0,0,0,1.382-1.382V12.607H17.83a.476.476,0,0,0,.149-.027l.2-.064v5.759A.748.748,0,0,1,17.428,19.022ZM.588,12.905v5.352a.448.448,0,0,0,.447.447l16.394.017a.447.447,0,0,0,.447-.447v-5.37l-.045,0H13.539v1.124a1.684,1.684,0,0,1-1.682,1.682H6.606a1.684,1.684,0,0,1-1.682-1.682V12.907H.633Zm11.269,2.37H6.606a1.245,1.245,0,0,1-1.244-1.244V12.538a.069.069,0,0,0-.069-.069H2.59V1.035A.748.748,0,0,1,3.337.288H9.558a1.155,1.155,0,0,1,1.155,1.155v3.12a.886.886,0,0,0,.885.885h3.12A1.156,1.156,0,0,1,15.873,6.6v5.866h-2.7a.069.069,0,0,0-.069.069v1.493A1.245,1.245,0,0,1,11.857,15.275ZM2.89,12.169h2.4a.369.369,0,0,1,.369.369v1.493a.945.945,0,0,0,.944.944h5.252a.945.945,0,0,0,.944-.944V12.538a.369.369,0,0,1,.369-.369h2.4V6.6a.856.856,0,0,0-.855-.855H11.6a1.186,1.186,0,0,1-1.185-1.185V1.443A.855.855,0,0,0,9.558.588H3.337a.448.448,0,0,0-.447.447Zm-.438.3H.633a.339.339,0,0,1-.278-.534l2.1-3Zm-.3-2.578L.6,12.107a.038.038,0,0,0,0,.041.037.037,0,0,0,.035.021H2.152ZM17.83,12.469H16.01V8.939l2.1,3a.339.339,0,0,1-.278.533Zm-1.52-.3h1.52a.037.037,0,0,0,.035-.021.038.038,0,0,0,0-.04L16.31,9.891Z" fill="#151d21"/>
  </g>
</svg>
