<svg id="noun_X_2939490" xmlns="http://www.w3.org/2000/svg" width="10.682" height="11.59" viewBox="0 0 10.682 11.59">
  <path id="Path_45051" data-name="Path 45051" d="M15.473,5.226a.673.673,0,0,0-1.007,0L10.341,9.7,6.216,5.226a.673.673,0,0,0-1.007,0,.82.82,0,0,0,0,1.093L9.334,10.8,5.209,15.271a.82.82,0,0,0,0,1.093.673.673,0,0,0,1.007,0l4.125-4.476,4.125,4.476a.673.673,0,0,0,1.007,0,.82.82,0,0,0,0-1.093L11.348,10.8l4.125-4.476A.82.82,0,0,0,15.473,5.226Z" transform="translate(-5 -5)" fill="#151d21"/>
</svg>
